<?xml version="1.0" encoding="utf-8"?>
<!-- Generator: Adobe Illustrator 26.5.0, SVG Export Plug-In . SVG Version: 6.00 Build 0)  -->
<svg version="1.1" id="Layer_1" xmlns="http://www.w3.org/2000/svg" xmlns:xlink="http://www.w3.org/1999/xlink" x="0px" y="0px"
	 viewBox="0 0 641.6 507.5" style="enable-background:new 0 0 641.6 507.5;" xml:space="preserve">
<style type="text/css">
	.st0{fill:#9A9A9A;}
	.st1{fill:#999999;}
	.st2{fill:#040404;}
	.st3{fill:#090909;}
	.st4{fill:#070707;}
	.st5{fill:#060606;}
	.st6{fill:#050505;}
	.st7{fill:#0D0D0D;}
	.st8{fill:#111111;}
	.st9{fill:#F9F9F9;}
	.st10{fill:#373737;}
	.st11{fill:#FCFCFC;}
	.st12{fill:#FDFDFD;}
	.st13{fill:#FEFEFE;}
</style>
<g>
	<path class="st0" d="M616.4,134.7c-4.6-3.6-9.9-5.7-15.4-7.6c-23.8-8-48.2-7.1-72.5-3.5c-24,3.5-47.4,9.4-70.4,17.2
		c-1.5,0.5-2.8,0.5-4.3,0c-33.2-11.2-67.2-18.5-102.3-20.5c-27.2-1.5-54.4-1.4-81.2,4.5c-2,0.4-3.4,0.2-4.7-1.7
		c-7.9-11.3-18.8-18.8-31.6-23.7c-19.5-7.5-39.4-6.4-59.3-1.7c-23.7,5.6-44.3,17.2-62.8,32.7c-10.6,8.9-20.3,18.8-28.7,30
		c-0.7,0.9-2.5,1.8-0.5,3.3c1.7,1.3,2.9,0.8,4-0.8c0.1-0.2,0.3-0.4,0.5-0.6c15-18.7,32.7-34.2,53.7-45.9
		c18.1-10.1,37.4-16.7,58.2-17.5c19.8-0.8,37.3,5.7,52.1,18.9c3,2.7,5.9,5.4,8.5,9.1c-16.8,1.7-29.7,5.9-44.2,13.8
		c-20.1,10.9-38.4,24.3-55.5,39.3c-15.7,13.8-30.5,28.5-40.7,47.1c-8.1,14.8-13.6,30.5-14.9,47.5c-0.2,2.3-1.2,4.9,0.8,7
		c2.3-3.3,3.8-7.1,5-10.9c0.1-1.1,0.2-2.2,0.3-3.2c0.6-5.9,1.8-11.6,3.5-17.1c2.9-9.5,7.4-18.5,12.9-27.1c1-1.5,2-3,3-4.4
		c0.7-1,1.3-1.9,2-2.8c0.6-0.8,1.2-1.7,1.9-2.5c0.7-0.9,1.4-1.8,2.1-2.7c0.5-0.6,0.9-1.1,1.4-1.7c0.9-1.1,1.8-2.2,2.8-3.3
		c0.5-0.5,1-1.1,1.4-1.6c1.9-2.2,3.9-4.3,5.8-6.4c2.5-2.6,5.1-5.2,7.7-7.7c2.1-2,4.2-3.9,6.4-5.9c4.4-3.8,8.8-7.6,13.4-11.2
		c2.6-2,5.2-4,7.8-6c1.1-0.8,2.1-1.5,3.2-2.2c0.9-0.7,1.9-1.3,2.9-2c0.7-0.4,1.3-0.9,2-1.3c0.7-0.4,1.3-0.9,2-1.3
		c0.2-0.1,0.3-0.2,0.5-0.3c1-0.6,2-1.3,3-1.9c0.2-0.1,0.3-0.2,0.5-0.3c0.1-0.1,0.3-0.2,0.4-0.3c0,0,0.1-0.1,0.1-0.1
		c0,0,0.1-0.1,0.1-0.1c0.7-0.4,1.4-0.9,2.1-1.3c1.2-0.7,2.4-1.4,3.7-2.1c12.7-7.1,26.2-12.8,40.6-16.6c5-1.4,10.2-2.2,15.3-3.2
		c0.2,0,0.5-0.1,0.7-0.1c0.2,0,0.4,0,0.5,0c0,0,0,0,0,0c0.2,0,0.3,0,0.5,0c0,0,0,0,0,0c0.1,0,0.2,0,0.4,0.1c0.2,0,0.4,0.1,0.6,0.2
		c0.1,0,0.2,0.1,0.3,0.2c0,0,0,0,0,0c0,0,0.1,0.1,0.1,0.1c0,0,0.1,0.1,0.1,0.1c0,0,0,0,0,0v0h0c0,0,0,0,0,0c0,0,0,0,0,0
		c0.1,0.1,0.1,0.1,0.2,0.2c0,0,0.1,0.1,0.2,0.2c0,0,0,0,0,0h0c0,0.1,0.1,0.1,0.2,0.2c0,0,0,0,0,0h0c0.1,0.1,0.1,0.2,0.2,0.3
		c0.1,0.2,0.2,0.4,0.3,0.6c1.3,2.7,2.4,5.4,3.4,8.1c0.2,0.7,0.5,1.4,0.7,2.1c0.7,2.1,1.2,4.1,1.7,6.2c1.7,7.4,2.2,15,1.7,22.8
		c-0.3,4.4-0.8,8.8-1.6,13.1c-0.3,1.7-0.7,3.4-1.1,5.1c-0.8,3.4-1.7,6.8-2.8,10.1c-0.5,1.7-1.1,3.3-1.7,5c-0.6,1.6-1.2,3.3-1.9,4.9
		c-0.3,0.8-0.7,1.6-1,2.5c4.2,0.4,8.4,0.7,12.6,1c3.8-9.9,5.8-20.3,7-30.9c2-17.8-0.9-34.8-8.3-51c-1.4-3.1,0-3.3,2.5-3.3
		c14,0,27.9,1.3,41.8,2.7c36,3.6,70.4,14.4,105.4,22.7c0.5,0.1,0.9,0.3,2,0.7c-6.3,3.9-12.3,7.5-18.2,11.4
		c-18.8,12.5-38.1,24.4-54,40.7c-1.7,1.8-3.7,3.3-4.5,5.8c5.1,1,10.4,1.6,15.2,3.9c1.3-3.7,4.3-6.1,6.7-8.8
		c16.8-19.4,35.9-36,58.1-49c2.5-1.5,4.8-1.8,7.7-1c25.7,7.2,52.1,9.9,78.7,10.8c13.7,0.5,27.4-0.2,41.2-1.2
		c14.7-1.1,29.2-3.1,43.5-6.9c7.8-2.1,15.1-5.3,20.4-11.8C623.4,145.7,622.6,139.6,616.4,134.7z M615.6,144.7
		C615.6,144.7,615.6,144.7,615.6,144.7L615.6,144.7L615.6,144.7C615.6,144.7,615.6,144.7,615.6,144.7L615.6,144.7L615.6,144.7
		L615.6,144.7C615.6,144.7,615.6,144.7,615.6,144.7l0,0.2c0,0.1,0,0.2,0,0.4c0,0,0,0.1,0,0.1c0,0.1,0,0.2-0.1,0.3
		c0,0.1-0.1,0.3-0.1,0.4s-0.1,0.3-0.2,0.4c0,0.1-0.1,0.2-0.1,0.3c-0.3,0.7-0.8,1.4-1.4,2.1c-3.7,4.5-8.8,7-14.1,8.9
		c-9.2,3.3-18.7,4.6-28.2,4.6c-0.9,0-1.8,0-2.6,0c-0.9,0-1.8-0.1-2.7-0.1c-0.9,0-1.8-0.1-2.7-0.2c-0.9-0.1-1.8-0.1-2.7-0.2
		c-1.2-0.1-2.4-0.2-3.6-0.4c-19.8-2.5-39.4-5.6-58.9-9.7c-7.9-1.6-15.8-3.4-23.7-5.2c-2.6-0.6-5.3-1.2-7.9-1.8v-1h0
		c0.8-0.3,1.6-0.6,2.4-0.9c0.6-0.2,1.2-0.5,1.8-0.7c0.1,0,0.2-0.1,0.3-0.1c0.9-0.4,1.9-0.7,2.8-1c1.2-0.4,2.4-0.8,3.7-1.2
		c2.4-0.8,4.9-1.6,7.4-2.3c1.1-0.3,2.2-0.6,3.2-0.9c2.6-0.7,5.3-1.4,8-2.1c24.3-6,49-7.7,73.9-6.6c10.8,0.5,21.6,1.9,31.9,5.7
		c0.5,0.2,1,0.4,1.5,0.6c0.2,0.1,0.5,0.2,0.7,0.3c0.3,0.1,0.7,0.3,1,0.4c0.8,0.4,1.7,0.7,2.5,1.2c0.1,0.1,0.3,0.1,0.4,0.2
		c1.2,0.6,2.4,1.4,3.5,2.2c0.1,0.1,0.3,0.2,0.4,0.3c0.4,0.3,0.7,0.6,1,0.9c0.1,0.1,0.2,0.2,0.3,0.3c0.1,0.1,0.2,0.2,0.3,0.3
		c0.2,0.2,0.3,0.4,0.5,0.5c0.2,0.2,0.3,0.3,0.4,0.5c0.1,0.1,0.2,0.2,0.3,0.4c0.3,0.5,0.6,1,0.7,1.5
		C615.6,143.7,615.6,144.2,615.6,144.7L615.6,144.7z"/>
	<path class="st1" d="M394.4,279.3c-3.4,4.4-6.9,8.5-11.4,11.8c0,0.1-0.1,0.1-0.1,0.2c0,0-0.1,0.1-0.1,0.1c-0.7,0.5-1.7-0.1-2.3,0.5
		c-7.2,4.3-15.2,5.2-23.4,4.4c-0.2,0-0.3,0-0.4,0c-0.1,0-0.2,0-0.2-0.1c-0.1,0-0.2,0-0.3-0.1c-0.1,0-0.2-0.1-0.3-0.1
		c0,0-0.1,0-0.1-0.1c-0.1,0-0.2-0.1-0.3-0.2c-0.1-0.1-0.2-0.1-0.2-0.2c-0.1-0.1-0.2-0.2-0.2-0.3c0-0.1-0.1-0.2-0.1-0.3c0,0,0,0,0,0
		c0-0.1,0-0.2,0-0.3c0,0,0-0.1,0-0.2c0,0,0-0.1,0-0.1c0-0.1,0-0.2,0.1-0.3c0-0.1,0-0.1,0.1-0.2c0-0.1,0-0.1,0.1-0.2
		c0.1-0.1,0.1-0.3,0.2-0.4c0.1-0.2,0.2-0.3,0.3-0.5c1.2-1.6,0.9-4.3,3.7-4.6c-2.1-3.5-4.1-7-6.2-10.5v0c-0.2,0.2-0.5,0.3-0.7,0.5
		c-0.2,0.2-0.4,0.3-0.6,0.5c-0.2,0.2-0.4,0.4-0.6,0.6c-0.1,0.1-0.2,0.2-0.4,0.4c-0.1,0.1-0.2,0.3-0.3,0.4c-0.2,0.3-0.5,0.6-0.7,0.8
		c-0.2,0.2-0.3,0.4-0.4,0.6c-0.1,0.2-0.2,0.3-0.3,0.5c-0.1,0.2-0.2,0.4-0.3,0.6c-0.2,0.4-0.5,0.8-0.7,1.2c-0.3,0.5-0.5,0.9-0.7,1.4
		c-0.5,1-1,1.9-1.5,2.8c-0.5,0.8-0.9,1.6-1.2,2.2c-0.2,0.4-0.4,0.7-0.6,1c-0.1,0.2-0.2,0.3-0.3,0.4c-0.1,0.2-0.2,0.3-0.3,0.5
		c-0.4,0.6-0.8,1-1.2,1.3c-0.1,0.1-0.2,0.1-0.3,0.2c-0.1,0.1-0.2,0.1-0.4,0.2c0,0-0.1,0-0.1,0.1c-0.1,0-0.2,0-0.3,0.1
		c-0.1,0-0.2,0-0.3,0c-0.4,0-0.7,0.1-1.2,0c-0.2,0-0.3,0-0.5,0c-0.4,0-0.8-0.1-1.2-0.2c-0.4-0.1-0.9-0.2-1.4-0.3c0,0,0,0,0,0
		c-0.5-0.1-1.1-0.2-1.6-0.3c-0.3-0.1-0.7-0.1-1-0.2c-0.5-0.1-1-0.2-1.5-0.2c-0.4-0.1-0.7-0.1-1.1-0.2c-0.4-0.1-0.7-0.1-1.1-0.2
		c-0.2,0-0.4-0.1-0.6-0.1c-0.5-0.1-1-0.2-1.5-0.4c-0.2-0.1-0.5-0.2-0.7-0.3c-0.2-0.1-0.3-0.1-0.5-0.2h-19.8
		c6.2-2.5,7.5-7.3,7.2-13.3c-0.4-7.1,0.4-14.2-0.4-21.3c-1.7,0.2-2,1.8-2.8,2.8c-5.1,7.1-10.2,14.2-14.6,21.8
		c-0.8,1.3-1.7,2.5-3.4,2.5c1.6,3,4,5.2,6.8,7.8h-11.4c-0.1,0.2-0.1,0.3-0.2,0.5c-0.2-0.2-0.3-0.4-0.4-0.5l-0.2-0.1l-0.2,0.2
		c-4.4,6.4-8.7,12.9-13.1,19.3c7.1,2.2,7.2,2.2,7.5,10c0,0.8,0,1.7-0.1,2.5c-2.3-2.3-3.6-5.6-6.2-7.6c-1.1-0.8-2-1.9-3.4-2.1
		c-5.5,7.7-11.1,15.3-16.6,23c3,9.2,17.8,11.9,25,6.2c0.8-0.7,1.6-1.3,2.6-2.2c-1.7,5.6-6.5,9.3-12.4,10c-7.8,0.8-14.8-0.7-20.3-6.8
		c-4,3.5-6.6,8-9.8,12.1c-9.3,11.8-18.2,23.9-29.1,34.2c-18.7,17.9-40.7,30.6-65.3,38.3c-25.8,8.2-51.7,9.5-77.2-1.4
		c-11.5-4.9-22.2-10.9-29.3-21.8c-5.5-8.4-5.9-17.8-5.3-27.4c0.1-1.8,1.1-3.8,3-3.8c2.4,0,1.2,2.3,1.3,3.5
		C40,387.3,49,392.7,58,388.8c9-3.8,14.3-12.9,12-20.4c-2.8-8.7-12.3-13.9-21.9-11.9c-11.3,2.4-20.1,13.4-20.4,25.6
		c-0.6,22,10.7,39.3,31.1,47.9c12.1,5.1,24.7,7.6,37.6,9.5c14.9,2.2,29.8,2.6,44.7-0.3c25.4-4.9,48.9-14.7,71.4-27.1
		c16.4-9.1,32.4-18.8,46-32c12.4-12,21.7-26.4,31-40.8c0.9-1.4,1.2-3.4,3.3-3.8c0-6.1-0.1-12.2-0.1-18.3c0-2.5-0.9-4.3-4.2-5.6h15.4
		c-3.1,1.9-3.8,4.4-3,7.4c1.4-0.5,1.6-1.8,2.2-2.9c3.2-5.9,6.5-11.7,9.5-17.7c1.3-2.6,2.9-3.3,5.6-2.6c5.4,1.3,10.9,2.3,16.5,2.8
		c5.4,0.4,5.6,0.5,4.2,5.8c-1.3,5.1-3.1,10.1-7.4,13.7c1.7,3.4,3.4,6.8,5.2,10.2c2.1-1.7,3.2-4.1,4.9-6.1c0.9-1.2,1-3.3,3.2-3.2
		c0.2-1.8,0.5-3.7,0.6-5.5c0.1-1.9,1.1-2.3,2.7-2.2c1-2.6,2.2-5.1,2.9-7.7c0.6-2.2,1.7-2.8,4-2.8c9.2,0.2,18.2-0.7,26.7-4.4
		c7-3,13.4-6.7,15.9-14.6C396.7,280.8,395.7,279.8,394.4,279.3z M283.9,339.5C283.9,339.5,283.9,339.5,283.9,339.5
		c-0.1,0.2-0.1,0.3-0.2,0.3c0,0-0.1-0.1-0.1-0.2c0,0,0-0.1,0-0.2c0,0,0-0.1,0-0.1c0,0,0.1,0,0.2,0
		C283.9,339.3,283.9,339.4,283.9,339.5L283.9,339.5z"/>
	<path class="st2" d="M293.1,283.8c-3.8-4.9-6.4-10.6-9.5-16c-3.4-5.9-6.4-12-14.6-12.6c5.6-2.1,10.9-4,15.4-7.6
		c10.9-8.5,9.5-21.8-3.1-27.3c-2.6-1.1-5.3-2-7.9-3.1c-4.2-0.3-8.4-0.7-12.6-1h-35.5c1.8,0.8,3.2,1.8,4.3,2.9
		c0.1,0.1,0.2,0.2,0.3,0.3c0.1,0.1,0.2,0.2,0.3,0.3c0.3,0.4,0.6,0.9,0.9,1.4c0.1,0.1,0.1,0.2,0.2,0.4c0.9,1.9,1.3,4.2,1.2,6.8
		c-0.2,6.5,0,13.1,0,19.6c0,1.3,0,2.6,0,4c0,1.1,0,2.2,0,3.2v0.1c0,1.1,0,2.2,0,3.3c0,0.5,0,1,0,1.4c0,2.1-0.1,4.3-0.2,6.4
		c0.6,5.5,0.4,10.9,0.1,16.4c-0.2,3.8-2.6,6.5-6.3,8.2c0.8,0.3,1.4,0.4,2,0.6c8.7-0.1,17.4-0.2,26.1-0.3c0-0.3,0-0.5-0.1-0.8
		c-3.8-0.9-5.5-3.7-5.8-7.2c-0.5-5-0.5-10.1,0.1-15.2c-0.1-1.7-0.3-3.5-0.3-5.2c0-7.2,0.3-7.4,7.6-5.6c4.8,0.4,7.9,3.2,9.9,7.4
		c3.5,7.1,7,14.2,10.5,21.3c1.2,1.8,2.4,3.5,3.5,5.3c2.6,0.1,5.2,0.2,7.8,0.3l0.2-0.2l0.2,0.1c0.2-0.1,0.4-0.1,0.6,0h11.4
		C297.1,289,294.7,286.8,293.1,283.8z M262.3,254.3c-1.6,0.5-3.3,1.2-5.1,0.9c-0.9,0.1-1.7,0.2-2.4,0.3c-0.4,0-0.8,0.1-1.1,0.1
		c-1.4,0.1-2.4,0.1-3.2,0c-0.1,0-0.2,0-0.3-0.1c-0.1,0-0.2,0-0.2-0.1c-0.1,0-0.2-0.1-0.2-0.1c-0.1,0-0.1-0.1-0.2-0.1
		c-0.1,0-0.1-0.1-0.2-0.1c0,0,0,0,0,0c-0.1-0.1-0.2-0.2-0.3-0.2c-0.1-0.1-0.1-0.1-0.2-0.2c-0.1-0.1-0.1-0.2-0.2-0.3
		c0-0.1-0.1-0.2-0.1-0.4c0-0.1-0.1-0.2-0.1-0.2c0-0.1,0-0.2-0.1-0.3c0-0.2-0.1-0.4-0.1-0.6c-0.2-1.3-0.2-3.1-0.2-5.6c0,0,0,0,0,0
		c0-2.3,0-4.7,0.1-7c0-1.7,0-3.5,0-5.2c0-0.9,0-1.7,0-2.6c0-1.4,0-2.8,0-4.2c0-0.1,0-0.2,0-0.3c0-0.1,0-0.2,0-0.4c0-0.2,0-0.4,0-0.6
		c0-0.2,0-0.5,0.1-0.7c0-0.3,0.1-0.5,0.1-0.8c0-0.2,0.1-0.4,0.1-0.5c0,0,0-0.1,0-0.1c0-0.2,0.1-0.4,0.1-0.6c0-0.1,0-0.1,0.1-0.2
		c0-0.2,0.1-0.4,0.2-0.6c0.2-0.6,0.5-1.2,0.8-1.7c0.1-0.2,0.2-0.4,0.3-0.5c0-0.1,0.1-0.2,0.2-0.2c0-0.1,0.1-0.2,0.2-0.2
		c0.1-0.1,0.1-0.1,0.2-0.2c0.1-0.2,0.3-0.3,0.4-0.5c0.1-0.1,0.2-0.2,0.3-0.3c0.5-0.5,1-0.9,1.6-1.2c0.1-0.1,0.3-0.2,0.5-0.3
		c0.2-0.1,0.5-0.2,0.7-0.3c0.4-0.2,0.8-0.3,1.2-0.4c0.2-0.1,0.4-0.1,0.6-0.2c0.2,0,0.4-0.1,0.6-0.1c0.2,0,0.5-0.1,0.8-0.1
		c0.3,0,0.6-0.1,0.9-0.1c0.3,0,0.6,0,1,0c0.4,0,0.7,0,1.1,0c4.7-0.2,8.6,1.1,11.3,5.2C281.2,232.7,276.2,250.3,262.3,254.3z"/>
	<path class="st3" d="M99.4,240.2c-1.6-0.5-1.5-2-1.9-3c-3.4-7.3-8.3-13.3-15.4-17.3c-2.3-1.3-4.8-2.2-7.3-2.7
		c-9-1.6-12.9,1.7-12.9,10.8c0,7.2,0.2,14.5-0.1,21.7c-0.1,3,0.9,3.7,3.5,3.3c1.2-0.2,2.5,0,3.7,0c10.3,0,13-1.8,16.8-11v22.4
		c-0.7,0.3-0.8-0.4-0.9-0.7c-2.4-7.7-5.5-10-13.6-9.9c-3.1,0-7.3-1.4-9,0.6c-1.6,1.8-0.5,5.9-0.5,9c0,4.2,0,8.5,0,12.7
		c0,10.4,0.6,11.3,10.8,15.5h-34c8.3-2.8,8.2-8.9,8.2-15.3c-0.2-16.2-0.1-32.5-0.1-48.7c0-3.7-0.7-6.2-2.4-7.9
		c-1.3-1.4-3.3-2.3-6-2.9c0.1-0.3,0.2-0.5,0.4-0.6c0.1,0,0.2-0.1,0.2-0.1c0.4-0.1,1,0.1,1.4,0.1c17.9,0,35.7,0,53.6-0.1
		c2,0,2.8,0.3,3,2.5C97.6,225.8,98.6,233,99.4,240.2z"/>
	<path class="st4" d="M151.7,287.9c0,0-0.1,0.1-0.1,0.1c0,0,0,0,0,0.1c0,0.1-0.1,0.1-0.2,0.2c-0.1,0.2-0.3,0.3-0.5,0.5
		c-0.9,0.9-2.1,1.7-3.8,2.8h30.4c-2.1-1.1-3.9-2.4-5.4-3.9c-0.4-0.4-0.8-0.9-1.2-1.3c-0.2-0.2-0.4-0.5-0.6-0.7
		c-0.4-0.5-0.7-0.9-1.1-1.4c-3.4-4.8-5.2-10.6-7.9-15.9c-6.3-12.5-12.4-25.1-18.4-37.7c-2-4.2-4-8.4-6.1-12.6
		c-0.2-0.4-0.5-0.9-0.8-1.3v0c-0.3-0.5-0.6-1-1-1.8c0,0,0,0,0,0c-1.6,3.7-3.2,7.3-4.8,10.8c-0.4,0.9-0.8,1.8-1.2,2.6
		c-0.8,1.7-1.5,3.5-2.3,5.2l-1.1,2.6c-4.8,10.9-9.6,21.8-14.5,32.7c0,0.1,0,0.1-0.1,0.2c0,0.1-0.1,0.2-0.2,0.3c0,0,0,0,0,0
		c-0.1,0.1-0.1,0.2-0.2,0.3c0,0,0,0,0,0c-0.1,0.1-0.1,0.2-0.2,0.3c0,0,0,0,0,0c-0.1,0.1-0.1,0.2-0.2,0.3c-0.1,0.1-0.2,0.3-0.3,0.4
		c-1.2,3.8-2.7,7.6-5,10.9c-1.5,4.6-4.3,7.9-9.2,9.1c0.1,0.4,0.1,0.7,0.2,1.1c3.1-0.4,6.2-0.4,9.3-0.2h5.5c0.1,0,0.2,0,0.3,0
		c0.2,0,0.4-0.1,0.7-0.1c0.2,0,0.4-0.1,0.7-0.1c0,0,0.1,0,0.1,0c0.2,0,0.5-0.1,0.7-0.1c0.1,0,0.3-0.1,0.4-0.1
		c-0.2-0.1-0.5-0.2-0.7-0.3c-0.2-0.1-0.5-0.2-0.7-0.3c-0.1,0-0.2-0.1-0.3-0.1c-0.2-0.1-0.5-0.2-0.7-0.3c-0.3-0.1-0.7-0.3-0.9-0.5
		c-0.2-0.1-0.3-0.3-0.5-0.4c-0.1-0.2-0.3-0.4-0.4-0.6c-0.1-0.2-0.2-0.5-0.2-0.7c-0.1-0.5-0.1-1-0.2-1.5c-0.1-1.2-0.1-2.3,0.1-3.4
		c0-0.2,0.1-0.4,0.2-0.6c0.5-1.5,1.1-3,1.7-4.5c0.3-0.8,0.6-1.5,1-2.3c0.6-1.3,1.1-2.7,1.6-4c0.6-1.5,1.7-1.3,2.7-1.3h28.1
		c1,0,1.9-0.2,2.5,1c0.4,0.9,0.8,1.8,1.2,2.7c0.2,0.5,0.4,0.9,0.6,1.3h0c0,0.1,0.1,0.2,0.1,0.3c0.1,0.3,0.3,0.6,0.4,0.8
		c0,0.1,0.1,0.2,0.1,0.2h0c0.2,0.5,0.4,0.9,0.6,1.3c0.2,0.5,0.4,0.9,0.6,1.4c0.4,0.9,0.8,1.8,1.1,2.8c0.1,0.4,0.2,0.7,0.3,1
		c0.5,1.8,0.4,3.2-0.4,4.4C151.8,287.8,151.8,287.8,151.7,287.9z M115.9,267.2c1.2-2.7,2.4-5.3,3.5-8s2.3-5.3,3.5-8
		c0.6-1.3,1.2-2.6,1.8-4c1.8-4,3.5-8,5.3-12.1c5.2,10.9,10.1,21.3,15.1,32H115.9z"/>
	<path class="st5" d="M597.6,216.4c-6.8,3-9.8,8.1-12,14c-7.3,19.7-14.6,39.4-21.9,59.1c-0.3,0.9-0.4,2-1.9,2.9
		c-8.8-20-17.6-39.9-26.4-59.8c0-0.8-0.5-1.2-1.3-1.2c-1.6-6.1-4-11.7-10.6-14.7h30.9c-6.5,2.8-7.8,6.2-5,12.9
		c5.6,13.6,11.1,27.2,16.7,40.7c0.5,1.1,0.5,2.5,1.9,3.2c5.5-15,11.2-29.8,16.5-44.7c2-5.7,0.3-8.3-7-12.3H597.6z"/>
	<path class="st6" d="M336.8,256.1c0,0-0.1,0-0.1,0L336.8,256.1L336.8,256.1C336.7,256.1,336.7,256.1,336.8,256.1z"/>
	<path class="st6" d="M382.9,291.1c0,0.1-0.1,0.1-0.1,0.2c0,0-0.1,0.1-0.1,0.1c-0.7,0.5-1.7-0.1-2.3,0.5c-4.2-0.1-8.5-0.3-12.8-0.2
		c-0.7,0-1.3,0-2,0.1c-0.6,0-1.2,0-1.7,0c-0.3,0-0.6-0.1-0.9-0.1c-0.3-0.1-0.6-0.1-0.8-0.2c-0.2-0.1-0.3-0.1-0.5-0.2
		c0,0-0.1,0-0.1-0.1c-0.2-0.1-0.3-0.2-0.5-0.3c-0.8-0.6-1.4-1.4-2-2.5c-2.1-3.5-4.1-7-6.2-10.5v0c0-0.2-0.1-0.4-0.1-0.6
		c-0.2-0.6-0.4-1.3-0.6-1.9c-0.2-0.4-0.3-0.8-0.5-1.2c-0.4-0.8-0.8-1.5-1.2-2.3c-0.2-0.4-0.4-0.8-0.6-1.1c-0.4-0.8-0.8-1.5-1.1-2.4
		c-0.5-1.1-0.9-2.3-1.5-3.3c-0.1-0.2-0.2-0.4-0.3-0.6c-0.1-0.1-0.1-0.2-0.2-0.3c-0.1-0.2-0.2-0.4-0.3-0.6c-0.1-0.2-0.2-0.4-0.3-0.5
		c-0.1-0.2-0.2-0.3-0.3-0.5c-0.1-0.1-0.1-0.2-0.2-0.3c-0.1-0.2-0.3-0.4-0.5-0.6c-0.2-0.3-0.4-0.5-0.6-0.8c-0.3-0.3-0.5-0.6-0.8-0.9
		c-0.1-0.1-0.3-0.3-0.4-0.4c0,0,0,0,0,0c-0.1-0.1-0.3-0.2-0.4-0.4c-0.2-0.2-0.4-0.3-0.5-0.4c-0.1-0.1-0.2-0.2-0.3-0.2
		c-0.1-0.1-0.2-0.1-0.3-0.2c-0.1,0-0.1-0.1-0.2-0.1c-0.1-0.1-0.2-0.1-0.3-0.2c0,0-0.1,0-0.1-0.1c-0.1,0-0.1-0.1-0.2-0.1
		c-0.2-0.1-0.4-0.3-0.7-0.4c-0.1,0-0.2-0.1-0.3-0.1c-0.3-0.1-0.5-0.3-0.8-0.4c0,0-0.1,0-0.1-0.1c-0.7-0.3-1.4-0.5-2.1-0.7
		c0,0,0,0-0.1,0c0,0,0,0,0,0c0.3-0.1,0.6-0.2,1-0.3c1.8-0.6,3.7-1,5.5-1.5c0.4-0.1,0.8-0.2,1.1-0.3c0.3-0.1,0.7-0.2,1-0.3
		c0.4-0.1,0.9-0.2,1.3-0.4c0,0,0.1,0,0.1,0c0.2-0.1,0.5-0.2,0.7-0.2c0.2-0.1,0.5-0.2,0.7-0.3c0.2-0.1,0.4-0.2,0.6-0.3
		c0.2-0.1,0.4-0.2,0.6-0.3c1.2-0.6,2.2-1.4,3.1-2.3c0.3-0.3,0.6-0.6,0.8-0.9c0.7-0.8,1.3-1.7,1.8-2.6c0.2-0.4,0.4-0.8,0.6-1.1
		c0.1-0.2,0.2-0.4,0.3-0.6c0.2-0.4,0.3-0.8,0.5-1.2c0.1-0.2,0.1-0.4,0.2-0.6c1.8-5.8,1.2-12.4-1.3-16.1c0,0,0,0,0,0
		c-1.6-5.6-6-9.1-12-9.6c-0.1-0.1-0.3-0.2-0.4-0.4c0,0,0.1-0.3,0.1-0.3c1.3-0.1,2.6-0.2,3.9-0.4c5.1,1,10.4,1.6,15.2,3.9
		c3.6,1.3,6.7,3.4,8.8,6.7c4.3,6.6,2.8,14.5-3.7,20c-4.7,4.1-10.3,6.4-16.5,8.5c6.9,0.7,10.4,5.2,13.3,10.6c1.5,2.2,2.2,5,4.4,6.8
		c1.3,3.4,2.9,6.6,4.9,9.6c0.4,0.6,0.8,1.2,1.2,1.8c0.9,1.2,1.8,2.3,2.7,3.4c0.2,0.2,0.4,0.5,0.6,0.7c0.2,0.2,0.4,0.4,0.6,0.6
		c0.2,0.2,0.3,0.3,0.5,0.5c0.1,0.1,0.2,0.2,0.3,0.2c0.6,0.5,1.3,1,2.1,1.3c0.1,0,0.2,0.1,0.3,0.1c0.2,0.1,0.5,0.2,0.8,0.2
		c0.1,0,0.3,0.1,0.4,0.1C382.8,291.1,382.9,291.1,382.9,291.1z"/>
	<path class="st2" d="M517.3,274.8c-2.3,5.8-4.5,11.6-7.2,18.5c-3.6-8.1-6.8-15-9.9-22c-6.6-14.9-13.1-29.8-19.8-44.7
		c-1.8-4.1-3.8-8.2-9.5-10.1h31.3c-2.5,1.1-5.2,2-6.1,4.9c-0.9,2.8,0.3,5.2,1.3,7.6c6.1,14.8,12.3,29.6,18.4,44.4
		C515.6,274.5,516.3,274.8,517.3,274.8z"/>
	<path class="st6" d="M425.1,291.4c0,0.4,0,0.8,0,1.2c-10.4-0.5-19.4-4.5-27.7-10.6c-0.7-1.2-1.6-2.2-3-2.7
		c-2.3-3.8-4.5-7.5-6.8-11.2c-0.5-2-1.1-4-1.7-6c-4.5-23.2,13.3-45.2,37.6-46.8c0,0.3,0,0.6,0,0.8c-7.9,1.7-13.1,6.2-16.4,12.6
		c-0.3,0.5-0.5,1-0.8,1.6c-0.2,0.5-0.5,1.1-0.7,1.6c-0.3,0.8-0.6,1.7-0.9,2.6c-2,6.7-2.8,13.5-2.5,20.1c0.1,1,0.1,2,0.2,3v0
		c0.1,1,0.2,2,0.4,2.9c0.2,1.5,0.5,3,0.9,4.4c0.8,3.4,1.9,6.8,3.4,10.2c0.2,0.5,0.4,1,0.7,1.5c0.5,1,1,1.9,1.5,2.8
		C412.8,285.4,417.8,289.7,425.1,291.4z"/>
	<path class="st6" d="M446,289c-3.8,1.6-7.6,3-11.9,3c0.1-0.2,0.1-0.4,0-0.6h0c4.7-1,8.5-3.1,11.6-6.1c0.3-0.3,0.7-0.7,1-1
		c0,0,0,0,0,0c0.6-0.7,1.2-1.5,1.8-2.3c0.3-0.4,0.5-0.8,0.8-1.2c0.8-1.3,1.4-2.6,2-4c1-2.6,1.9-5.2,2.5-7.7c0.3-1.3,0.6-2.6,0.8-3.9
		c0.2-0.9,0.3-1.7,0.4-2.5v0c0.7-5.5,0.5-10.9-0.6-16.3c-0.1-0.7-0.3-1.3-0.4-2c-0.4-1.7-0.9-3.4-1.4-5c-0.2-0.6-0.4-1.1-0.6-1.7
		c-0.4-1.1-0.9-2.2-1.4-3.3c-0.7-1.7-1.5-3.3-2.4-5c-1.6-3-3.7-5.6-6.2-7.7c-1.8-1.5-3.7-2.7-5.9-3.7c-1.7-0.8-3.6-1.3-5.6-1.7
		c0-0.4,0-0.8,0-1.1c13.6,0.8,25.3,5.7,33.5,16.9C478.5,251.6,469.7,279.1,446,289z"/>
	<path class="st1" d="M232.3,282.8c-0.2,3.8-2.6,6.5-6.3,8.2c0.8,0.3,1.4,0.4,2,0.6c-8.3,8.5-18.2,14.9-28.6,20.5
		c-2.4,1.3-4.6,2.9-7.5,3.2c-0.3-2.5-1.6-3.9-4.3-4c-1.9-0.1-3.8-0.6-5.8-0.9c0.4-1.5,1.9-1.5,2.9-2c8.5-4.3,16-10.1,22.9-16.6h0
		c0.6-0.3,1.2-0.2,1.8-0.1c0.5,0.1,0.9,0.1,1.4,0c0.1,0,0.2,0,0.3-0.1c0.1,0,0.2-0.1,0.3-0.2c0.1,0,0.1,0,0.2-0.1l0,0
		c-0.2-0.2-0.5-0.4-0.7-0.5c-0.2-0.2-0.4-0.3-0.6-0.5c1.4-1.5,2.9-3,4.3-4.6c1.5-1.5,2.9-3,4.3-4.6c2.2-2.4,4.4-4.9,6.5-7.4
		c2.2-2.5,4.3-4.9,6.5-7.4C232.8,271.9,232.6,277.4,232.3,282.8z"/>
	<path class="st5" d="M381,322.6c-1.2-0.4-1.3-1.5-1.7-2.2c-1.4-2.3-2.8-4.8-5.1-6.3c-1.8-1.1-3.7-2.5-5.9-1.4c-2,1.1-1.5,3.2-1.5,5
		c0,8.6,0,17.2,0,25.9c0,2.8,0.3,5.2,3.5,6.8h-14.6c2.8-1.6,3.5-3.8,3.4-6.5c-0.1-8.9,0-17.7,0-26.6c0-5.1-2.3-6.5-6.8-4.1
		c-3.4,1.7-5.1,5-6.8,8.1c-1.5-0.5-0.5-1.5-0.7-2.2c0.2-1.8,0.5-3.7,0.6-5.5c0.1-1.9,1.1-2.3,2.7-2.2c9.6,0,19.2,0.2,28.8,0
		c2.4,0,3.3,0.7,3.4,3.1C380.2,317.1,380.7,319.7,381,322.6z"/>
	<path class="st7" d="M113.4,350h13.1c-7.6-12.2-12.4-26-19.6-39c-0.6,1.1-1,1.8-1.3,2.6c-4.3,9.9-8.5,19.8-12.8,29.7
		c-1.2,2.8-2.7,5.4-6,7h9.4c-3.3-1.4-3.5-2.9-2.3-5.2c2.6-5.5,2.5-5.6,8.6-5.6c2,0,4,0.1,6,0c2.3-0.1,4.4-0.3,5.3,2.7
		C114.8,344.8,117,347.5,113.4,350z M109.3,337.8c-3.9-0.1-7.7,0-12,0h0c0.3-0.7,0.6-1.3,0.8-2c0.8-2,1.7-3.9,2.5-5.8
		c0.6-1.3,1.1-2.6,1.7-4c0.3-0.7,0.6-1.4,0.9-2.1c0.3-0.7,0.6-1.4,0.9-2.1l0,0c2.5,5.2,4.6,9.7,6.7,14.1
		C111.5,337.5,110.7,337.8,109.3,337.8z"/>
	<path class="st7" d="M334.3,350h14.1c-3.4-3.3-9.3-14.3-11.7-21.7c-1.7-3.4-3.4-6.8-5.2-10.2c-1.1-2.3-2.3-4.6-3.4-6.9
		c-1.5,0.7-1.5,1.9-1.9,2.9c-3.8,7.7-6.3,16-10.6,23.5c-0.8,3.6-2.2,7-4.4,10c-1.1,0.9-2.1,1.8-3.2,2.7h8.8c-1.6-1.5-4.2-2.5-1.7-5
		c1.8-6.4,1.9-6.5,10.5-5.7c1.2-0.1,2.5-0.1,3.7-0.2c2.9-0.4,4.8,0.3,5.9,3.4C336.2,345.7,337.3,348.1,334.3,350z M331,335.8
		C331,335.9,331,335.9,331,335.8c0,0.1,0,0.2-0.1,0.3c0,0.1,0,0.1-0.1,0.2c0,0,0,0.1-0.1,0.1c-0.1,0.2-0.3,0.4-0.5,0.5
		c-0.1,0.1-0.2,0.1-0.3,0.2c-0.1,0-0.2,0.1-0.3,0.1c-0.2,0.1-0.3,0.1-0.5,0.2c-0.2,0.1-0.3,0.1-0.5,0.1c-0.1,0-0.2,0-0.3,0.1
		c-0.3,0.1-0.7,0.1-1,0.1c-0.6,0-1.2,0.1-1.8,0.1c-0.8,0-1.6,0-2.4,0c-0.5,0-1.1,0-1.6,0c-0.6,0-1.1,0-1.7,0c-0.6,0-1.2,0-1.8,0h0
		c0.2-0.5,0.5-1.1,0.7-1.6c0.2-0.4,0.4-0.9,0.6-1.3c0.5-1.1,0.9-2.1,1.3-3.1c0.2-0.5,0.4-1,0.6-1.5c1-2.3,2-4.7,3-7.2
		c0.2-0.4,0.4-0.9,0.5-1.3c0,0,0,0,0,0c0.6,1,1.1,1.9,1.4,2.8c0,0.1,0.1,0.2,0.1,0.3c0.1,0.2,0.1,0.3,0.2,0.4c0,0.1,0.1,0.2,0.1,0.4
		c0,0.1,0,0.2,0.1,0.3c0,0.1,0,0.2,0.1,0.3c0,0.2,0.1,0.5,0.1,0.7c0,0.1,0,0.2,0,0.4h0c0.1,0.1,0.3,0.2,0.4,0.4
		c0.2,0.2,0.4,0.4,0.6,0.6c0.2,0.2,0.4,0.4,0.5,0.7c0,0,0,0,0,0c0.2,0.2,0.3,0.5,0.4,0.7c0.1,0.2,0.3,0.5,0.4,0.7
		c0.2,0.4,0.4,0.8,0.6,1.3c0.1,0.2,0.2,0.4,0.2,0.6c0.1,0.2,0.2,0.4,0.2,0.6c0.2,0.7,0.5,1.4,0.7,2c0,0.1,0.1,0.2,0.1,0.4
		c0,0.1,0,0.2,0,0.3C331.1,335.7,331.1,335.8,331,335.8z"/>
	<path class="st3" d="M303.1,350.2h-13c4.6-4.1,1.8-9.7,2.6-14.6c0-6.1-0.1-12.2-0.1-18.3c0-2.5-0.9-4.3-4.2-5.6h15.4
		c-3.1,1.9-3.8,4.4-3,7.4C299.4,333.2,300.3,346.7,303.1,350.2z"/>
	<path class="st7" d="M484.8,343.2c0,2.2,0,4.3,1.8,5.9c0,0.3,0,0.6-0.1,0.9c-3.7,0.3-7.4,0.4-11.1-0.1l0-0.3l-0.2-0.1
		c1.7-1.6,2.3-3.6,2.3-6c-0.1-8.4-0.1-16.7,0-25.1c0-2.8-0.6-5.1-4.1-6.7H488c-3,1.6-3.2,4.2-3.2,7.1
		C484.8,327,484.8,335.1,484.8,343.2z"/>
	<path class="st8" d="M522.6,349.1c0,0.3,0,0.6-0.1,0.9c-3.7,0.3-7.4,0.3-11.1,0c0-0.3,0-0.6,0-0.9c1.3-1.2,1.6-2.7,1.6-4.4
		c-0.1-9-0.1-18,0-27c0-2.7-0.8-4.6-3.9-5.8h15.5c-3.5,1.3-3.8,3.7-3.8,6.3c0,8.6,0,17.2,0,25.9
		C520.8,345.9,520.9,347.8,522.6,349.1z"/>
	<path class="st3" d="M580.1,341c-1.4,6.1-7.3,9.6-16.1,9.6c-10.2,0-17.1-5-19.1-13.9c-2.1-9.3,1.9-18.6,10.1-22.5
		c-6.7,9.4-6.2,20.3,0.8,27C562.3,347.5,572.2,347.4,580.1,341z"/>
	<path class="st3" d="M58.4,326.6L58.4,326.6C58.4,326.6,58.4,326.6,58.4,326.6L58.4,326.6z"/>
	<path class="st3" d="M76.6,350.6c-4.7-0.7-10,2.3-12.9-3.9c-0.1-0.9-0.5-1.4-1.5-1.4c-1.2-1.8-2.5-3.5-3.9-5.2
		c-0.9-1.1-1.9-2.2-2.8-3.3c-1.4-1.6-2.9-3.2-4.2-4.9c-0.1-0.2-0.2-0.3-0.4-0.5c-0.1-0.1-0.1-0.2-0.2-0.3c-0.1-0.1-0.2-0.2-0.2-0.3
		c-0.4-0.5-0.9-0.8-1.8-0.7h0c0-0.2,0.1-0.3,0.1-0.5c-0.9-2-2-4-2.6-6.1c-2-6.5,2.3-12,9.5-11.9c-3.9,2.1-5.3,5.3-3.7,9
		c1.2,2.7,2.3,6.2,6.5,5.9c-0.1,0.6-2,0.4-0.8,1.8C64.1,335.4,69.1,343.6,76.6,350.6z"/>
	<path class="st3" d="M283.2,340.6c-1.7,5.6-6.5,9.3-12.4,10c-7.8,0.8-14.8-0.7-20.3-6.8c-4.3-8.4-4.9-16.8,1.1-24.6
		c1.6-2,3.1-4.4,6.1-4.6c0.1,0,0.1,0,0.2,0c0,0,0,0,0,0c-5.6,6.7-6.6,15.5-2.4,22.1c3,9.2,17.8,11.9,25,6.2
		C281.4,342.2,282.2,341.5,283.2,340.6z"/>
	<path class="st3" d="M445.9,348.5c4-4.2,3.7-8.2-0.4-11c-2.9-2-6.3-3-9.6-4.1c-3-1-5.9-2.1-8.4-4c-3.3-2.5-4.2-5.7-3.4-9.6
		c0.9-4,3.5-6.3,8.2-7.7c-1.1,1.2-1.7,1.8-2.2,2.4c-2.4,2.8-2.1,6.2,1,8.4c2.6,1.8,5.6,2.7,8.5,3.8c3.9,1.4,7.9,2.5,11,5.4
		C455.7,337,453.6,346,445.9,348.5z"/>
	<path class="st2" d="M400.6,350.4h-16c3.9-1.4,4.6-3.7,4.5-6.7c-0.1-8.6-0.1-17.2,0-25.8c0-1.8-0.3-3.5-1.5-4.8
		c0-0.4,0-0.9,0.1-1.3h10.4c0.1,0.5,0.1,1,0.2,1.5c-2.2,2.8-1.4,6.1-1.5,9.2c-0.1,2.6,0.1,5.1,0.1,7.7c0,0.3,0,0.7,0,1
		c0,4.7-0.1,9.5-0.2,14.2C396.7,347.5,397.5,349.1,400.6,350.4z"/>
	<path class="st4" d="M194.7,341.1c-0.8,3.3-2.5,6.1-6.3,7.3c3.5-6.2,2.3-9.9-4.1-12.7c-3.8-1.7-7.9-2.9-11.8-4.5
		c-3.2-1.3-5.9-3.3-6.8-6.9c-0.6-3.2,0.5-6.2,1.5-9.1c0.3-0.1,0.5-0.2,0.8-0.4c0.4-0.2,0.7-0.4,1.1-0.7l0.4-0.2
		c0.4-0.2,0.7-0.5,1.1-0.7c0.1-0.1,0.2-0.1,0.4-0.2c0.2-0.1,0.4-0.2,0.6-0.3c0.2-0.1,0.4-0.2,0.6-0.2c0.4-0.1,0.8-0.2,1.2-0.2
		c-4.3,5.6-4.3,7.2-0.1,10.6c2.5,2,5.6,2.7,8.5,3.7c3.6,1.3,7.3,2.5,10.3,5C194.7,334.2,195.5,337.5,194.7,341.1z"/>
	<path class="st3" d="M159.4,340.6c-0.6,3.6-2.4,6.3-6.2,7.5c1.5-2.1,2.4-4.3,1.7-6.8c-0.7-2.5-2.6-4-4.8-5
		c-4.2-1.8-8.6-3.3-12.8-5.1c-4.3-1.8-7.3-4.8-7.2-9.9c0.4-1.5,0.7-3,1.1-4.6c1.2-1.3,2.4-2.5,3.8-3.4c0.3-0.2,0.6-0.4,0.9-0.6
		c0.2-0.1,0.3-0.2,0.5-0.3c0.3-0.2,0.7-0.3,1.1-0.5c0.4-0.1,0.7-0.2,1.1-0.3c0,0.4,0,0.7,0,1.1c-1.2,0.8-2.4,1.5-3.1,2.7
		c-0.1,0.2-0.2,0.4-0.3,0.7c-0.1,0.4-0.2,0.8-0.2,1.2c-0.7,4.6,2.6,6.1,6,7.5c0.4,0,0.7,0.1,1.1,0.1c0.2,1.2,1.2,0.8,1.9,1
		c4.2,1.6,8.6,2.7,12.2,5.5C159.1,333.9,160,337.1,159.4,340.6z"/>
	<path class="st7" d="M228.9,349.6c-1.1,0.3-2.4,1-3.3-0.5c3.3-0.7,5-3,6.2-5.9c3-5.9,2.9-12,1.3-18.1c0.1-1.6-0.4-3-1.3-4.3
		c-1.3-4.3-4.3-7-8.4-8.8c8.7-1.4,18.7,7.6,19.3,17.2C243.4,338.1,237.4,346.9,228.9,349.6z"/>
	<path class="st3" d="M218.9,350.6c-10.4-0.4-19-8.4-19.5-17.9c-0.5-9.8,6.6-19.1,15.8-20.4c-2.2,2.7-5,4.7-5.5,8.1
		c-1.5,3.1-1.8,6.4-1.4,9.8c-0.5,1.5,0,3,0.3,4.5c-0.1,1.6,0.4,3.1,1.1,4.6c0.2,1.4,0.5,2.7,1.6,3.7c0.1,0.7,0.3,1.3,1,1.7
		c1.4,2.7,3.6,4.4,6.6,5.1C218.8,350.1,218.8,350.4,218.9,350.6z"/>
	<path class="st0" d="M279.6,291.4c-3.8,1-7.8,1.3-11.6,2.7c-11.3,4.1-19.1,11.9-23.8,22.9c-0.4,1-0.9,2-1.4,3.2
		c-2.7-5.5-0.7-13.6,4.7-19.4c6.3-6.9,14.5-10.3,23.2-13c1.8-0.6,3.6-1.1,5.3-1.7C277.3,287.8,278.5,289.6,279.6,291.4z"/>
	<path class="st9" d="M258,314.5C258,314.5,258,314.5,258,314.5c-0.1,0.1-0.1,0.1-0.2,0.1L258,314.5z"/>
	<path class="st9" d="M262.4,312.3C262.4,312.3,262.4,312.3,262.4,312.3L262.4,312.3C262.4,312.3,262.4,312.3,262.4,312.3
		L262.4,312.3z"/>
	<path class="st1" d="M165.6,324.3c-6.7,0.1-13.3,1.1-20,0.7c-0.8,0-1.4,0.3-1.7,1.1c-0.7-0.2-1.7,0.2-1.9-1c-0.3-0.6-0.6-1-1.1-0.1
		c-3.3-1.4-6.6-2.9-6-7.5h0c4.1,0.9,8.3,1.1,12.5,0.8c0.4,0,0.8,0,1.2-0.1c0.4,0,0.9-0.1,1.3-0.1c0.8-0.1,1.7-0.2,2.5-0.3
		c0.4-0.1,0.8-0.1,1.2-0.2c0.1,0.1,0.2,0.1,0.3,0.2c0.1,0.1,0.2,0.2,0.3,0.3c1.2,1.3,1.5,3.4,3.2,4.9c-0.3-2.4-0.5-4.3-0.7-6.2
		c3.6,0.5,6.8-1.5,10.3-1.5C166.1,318.2,165,321.1,165.6,324.3z"/>
	<path class="st0" d="M131.2,316.9c-0.4,1.5-0.7,3-1.1,4.6c-13.8-5.3-21.5-15.7-24.6-29.9h5.5C112.2,304.4,118.8,313,131.2,316.9z"
		/>
	<path class="st7" d="M63.7,346.7c-1.5-0.3-2.5,0.7-3.6,1.4c-3.9,2.6-8.1,3.6-12.7,2.6c-3.9-0.9-6.8-2.9-8-6.9
		c-1.2-4,0.1-7.3,2.8-10.2c1.8-1.9,3.9-3.5,6.5-4.1c0,0.2,0,0.4-0.1,0.5c-0.2,0.2-0.3,0.3-0.5,0.5c-0.7,0.7-1.3,1.5-1.8,2.2
		c-0.1,0.1-0.2,0.3-0.2,0.4c-0.5,0.9-0.9,1.8-1.1,2.7c-0.4,1.6-0.4,3.3,0.2,4.9c0.1,0.3,0.2,0.6,0.3,1c0.5,1.1,1.1,2,2,2.8
		c2,1.9,4.8,3,7.7,2.8c2.5-0.1,4.8-1.1,7-2.2C63.2,345.3,63.6,345.8,63.7,346.7z"/>
	<path class="st0" d="M387.6,268.1c-6-1.8-11.4-0.3-16.4,3.2c-0.9,0.6-1.5,1.8-2.8,1.3c-2.2-1.8-2.9-4.6-4.4-6.8
		c7-3.3,14.4-3.9,21.9-3.6C386.5,264.1,387,266.1,387.6,268.1z"/>
	<path class="st1" d="M189,317.4c-5.3,1.9-10.8,3.2-16,5.5c-4.1-3.5-4.1-5.1,0.1-10.6c0,0,0,0,0,0c0.8-0.4,1.6-1,2.4-1.2
		c0.2,0,0.3-0.1,0.5-0.1c0.3-0.1,0.6-0.1,1,0C181.7,311.9,186.4,312.7,189,317.4z"/>
	<path class="st8" d="M579.2,323.8c-4.5-7.2-9.6-13.3-19.3-11.7c5.2-1.3,10.5-1.4,15.8,0c1.9,0.5,2.7,1.3,2.9,3.2
		C578.8,318.1,579.1,320.8,579.2,323.8z"/>
	<path class="st10" d="M535.4,232.5c-3.4,5.2-4.9,11.2-7.4,16.8c-3.7,8.5-6.7,17.3-10.8,25.6c-1,0-1.6-0.3-1.5-1.4
		c2.3,0.6,1.8-1.5,2.2-2.5c5.1-12.5,10.1-25.1,15.1-37.6c0.3-0.7,0.7-1.3,1-2C534.9,231.3,535.4,231.6,535.4,232.5z"/>
	<path class="st8" d="M179,349.9c0,0.3-0.1,0.7-0.1,1c-0.7,0-1.5,0-2.2-0.1c-13.2-1.8-10.6,0.3-11.8-14.1
		C168.2,343.4,171.5,349,179,349.9z"/>
	<path class="st7" d="M437,349.9c0,0.4-0.1,0.8-0.2,1.1c-0.2,0-0.5,0-0.7,0c-14.4-1.6-11.1,0.2-12.5-13.4
		C426.6,343.3,429.9,348.7,437,349.9z"/>
	<path class="st7" d="M281.9,323.4C281.9,323.5,281.9,323.5,281.9,323.4L281.9,323.4L281.9,323.4z"/>
	<path class="st7" d="M281.9,321c0,0.8,0,1.7-0.1,2.5c-2.3-2.3-3.6-5.6-6.2-7.6c-1.1-0.8-2-1.9-3.4-2.1c-1.2-1.3-2.9-1.3-4.5-1.5
		c0-0.4,0.1-0.7,0.1-1.1c2.2,0,4.3-0.1,6.5-0.1C281.5,313.2,281.5,313.2,281.9,321z"/>
	<path class="st7" d="M143.8,349.9c0,0.4-0.1,0.7-0.1,1.1c-1.5-0.1-3-0.2-4.5-0.3c-8.2-0.7-9.5-2-9.5-10c0-0.4,0.2-1.1,0.4-1.2
		c1.2-0.5,1.4,0.6,1.8,1.3c2.1,4,5,7.1,9.3,8.6C142.1,349.6,142.9,349.7,143.8,349.9z"/>
	<path class="st10" d="M415.9,323.6c-3.8-7.6-8.3-13.5-17.7-10.4c-0.1-0.5-0.1-1-0.2-1.5c4.8-0.1,9.7,0,14.5-0.2
		c2-0.1,2.6,0.8,2.6,2.6C415.3,317.1,415.6,320.1,415.9,323.6z"/>
	<path class="st10" d="M539.2,349.4c-0.2,1-1,1-1.7,0.9c-5-0.1-10,0.4-14.9-0.3c0-0.3,0-0.6,0.1-0.9c4.5,1.8,10.1,0.2,13.8-4.3
		c1.4-1.7,2.5-3.6,4.1-5.9C540.9,342.8,539.7,346.1,539.2,349.4z"/>
	<path class="st10" d="M503.3,349.1c-0.2,1.2-1.1,1.2-2,1.2c-4.9-0.1-9.9,0.3-14.8-0.3c0-0.3,0-0.6,0.1-0.9
		c5.2,2.1,11.7-0.5,15.5-6.2c0.7-1.1,1.3-2.3,2.4-4.2C504.9,342.8,503.8,346,503.3,349.1z"/>
	<path class="st8" d="M192.4,322.9c-1.3-2.1-2.4-3.8-3.4-5.6c-2.6-4.7-7.3-5.5-12-6.5c1.7-0.2,3.3-0.3,5-0.4
		c1.9,0.3,3.8,0.8,5.8,0.9c2.7,0.1,4,1.5,4.3,4C191.5,317.8,192.6,320.1,192.4,322.9z"/>
	<path class="st8" d="M417.6,338.5c-0.6,3.5-1.2,6.9-1.7,10.4c-0.2,1.4-1,1.8-2.3,1.7c-3.2-0.1-6.5,0-9.7,0
		C411.4,349.6,414.5,344.3,417.6,338.5z"/>
	<path class="st1" d="M255.6,257.3c-2,3.9-3.9,7.8-7.3,10.8c-0.1-1.7-0.3-3.5-0.3-5.2C248,255.8,248.3,255.6,255.6,257.3z"/>
	<path class="st0" d="M315.5,337.7c-0.8,3.6-2.2,6.9-4.4,10h-8.5C307.4,344.2,310.9,340.3,315.5,337.7z"/>
	<path class="st8" d="M451,323.3c-2.8-5.2-5.1-10-11.7-11.5C451.4,311.2,449.7,310.3,451,323.3z"/>
	<path class="st1" d="M325.6,339.7c-3.1,2.6-6.3,5.1-10.5,5.7C316.8,339,316.9,338.9,325.6,339.7z"/>
	<path class="st8" d="M409.2,324.2v11.6c-1.5-2.2-2.4-4.5-5-4.9c-0.1-0.3-0.2-0.5-0.2-0.8C406.4,329.4,408,327.6,409.2,324.2z"/>
	<path class="st10" d="M434.1,292c-3,1.2-6,0.7-9,0.5c0-0.4,0-0.8,0-1.2c3,0.6,6,0.5,9.1,0C434.2,291.6,434.2,291.8,434.1,292z"/>
	<path class="st1" d="M64,323.3c-0.2-0.2-0.4-0.5-0.6-0.8c1.4-2.2,1-4.8,1.3-7.2C66.6,318.1,66.2,320.8,64,323.3z"/>
	<path class="st10" d="M430.4,215c0,0.4,0,0.8,0,1.1c-2.3,0-4.5,0-6.8,0h0c0-0.3,0-0.5,0-0.8C425.8,214.5,428.1,214.8,430.4,215z"/>
	<path class="st1" d="M443.2,349.9c-2.1,0.5-4,2.1-6.3,1.1c0-0.4,0.1-0.8,0.2-1.1H443.2z"/>
	<path class="st1" d="M184.8,350.1c-1.9,0.5-3.7,1.7-5.9,0.9c0-0.3,0.1-0.7,0.1-1C180.9,349.7,182.9,349.5,184.8,350.1z"/>
	<path class="st1" d="M150.1,349.9c-2.6,0.9-4.4,1.8-6.5,1.1c0-0.4,0.1-0.7,0.1-1.1H150.1z"/>
	<path class="st1" d="M267.9,311.1c0,0.4-0.1,0.7-0.1,1.1c-1.8,0-3.6,0.1-5.4,0.1h0c0,0,0,0,0,0h0
		C264,310.9,265.9,310.7,267.9,311.1z"/>
	<path class="st11" d="M231.8,320.8c0.9,1.3,1.4,2.7,1.3,4.3L231.8,320.8z"/>
	<path class="st1" d="M404.2,331c-2.4,0.1-4.9,0.1-7.3,0.2c0-0.3,0-0.7,0-1c2.3,0,4.7,0,7,0C404,330.4,404.1,330.7,404.2,331z"/>
	<path class="st1" d="M256.4,291.6c-0.8,0.4-1.6,0.5-2.3-0.2c0-0.3,0-0.5-0.1-0.8C255.1,290.4,256,290.5,256.4,291.6z"/>
	<path class="st10" d="M387.7,311.7c0,0.4,0,0.9-0.1,1.3c-0.7-0.4-1.5-0.7-3-1.5C386.2,311.7,387,311.7,387.7,311.7z"/>
	<path class="st0" d="M96.2,291.7c-0.8,0.5-1.6,0.4-2.7,0.2c0.6-1.1,1.4-1.4,2.6-1.3C96.1,291,96.1,291.4,96.2,291.7z"/>
	<path class="st1" d="M64.5,314.3c0,0.2-0.7,0.5-0.7,0.5c-0.4-0.3-0.7-0.7-0.9-1.1c-0.1-0.2-0.1-0.3,0-0.4c0,0,0,0,0.1-0.1
		c0.1-0.1,0.2-0.1,0.3-0.1c0.1,0,0.2,0,0.2,0c0.1,0,0.1,0.1,0.2,0.1c0.2,0.1,0.4,0.2,0.5,0.4c0.1,0,0.1,0.1,0.2,0.2
		C64.5,313.8,64.6,314,64.5,314.3z"/>
	<path class="st10" d="M511.4,350c-0.4,0.1-0.9,0.2-1.3,0.3c0.1-0.8,0.6-1.1,1.3-1.2C511.4,349.4,511.4,349.7,511.4,350z"/>
	<path class="st9" d="M58.4,326.6C58.4,326.6,58.4,326.6,58.4,326.6L58.4,326.6L58.4,326.6z"/>
	<path class="st9" d="M59.6,325.6c0,0.8-0.6,0.8-1.2,0.9c0.1-0.6,0.1-1.2,0.9-1.2C59.4,325.4,59.6,325.6,59.6,325.6z"/>
	<path class="st10" d="M475.4,349.9c-0.4,0.1-0.8,0.2-1.3,0.3c0.1-0.6,0.6-0.6,1-0.7l0.2,0.1L475.4,349.9z"/>
	<polygon class="st5" points="381.4,324.2 381.2,324.5 381.1,324.2 	"/>
	<path class="st1" d="M262.4,312.3C262.4,312.3,262.4,312.3,262.4,312.3c-0.5,0.8-1,1-1.5,0C261.4,312.3,261.9,312.3,262.4,312.3
		L262.4,312.3z"/>
	<polygon class="st8" points="418.1,336.2 418,336.5 417.9,336.2 	"/>
	<path class="st1" d="M63.4,323.9C63.4,323.9,63.4,324,63.4,323.9c-0.1,0.1-0.1,0.1-0.2,0.2c0,0-0.1,0.1-0.1,0.1
		c-0.2,0.2-0.5,0.4-0.8,0.1c-0.5-0.5,0-0.7,0.3-1C62.9,323.5,63.2,323.7,63.4,323.9z"/>
	<path class="st1" d="M64,323.3c-0.2,0.2-0.4,0.4-0.6,0.6c-0.2-0.2-0.5-0.4-0.7-0.6c0.2-0.3,0.5-0.5,0.8-0.8
		C63.6,322.8,63.8,323,64,323.3z"/>
	<path class="st3" d="M258,314.6c0,0-0.1,0-0.1,0c0,0,0,0,0-0.1c-0.4-0.9,0.4-0.7,0.8-0.8C258.8,314.3,258.4,314.5,258,314.6z"/>
	<path class="st12" d="M110.5,270.2c0.3-0.4,0.6-0.8,0.8-1.2C111.1,269.4,110.8,269.8,110.5,270.2z"/>
	<path class="st12" d="M135.1,215C135.1,215,135.1,215,135.1,215c-1.6,3.7-3.2,7.3-4.8,10.8C131.9,222.2,133.5,218.6,135.1,215z"/>
	<path class="st12" d="M148.4,274.1c0.9,1.8,1.7,3.6,2.5,5.4C150.2,277.7,149.3,275.9,148.4,274.1z"/>
	<path class="st12" d="M151,288.8c0.4-0.4,0.7-0.7,0.9-1.1C151.7,288.1,151.3,288.4,151,288.8z"/>
	<path class="st12" d="M154.9,190c2.1-2,4.2-3.9,6.4-5.9C159.1,186,157,188,154.9,190z"/>
	<path class="st12" d="M188.6,162.8c4.7-3.2,9.6-6.2,14.5-8.9C198.2,156.6,193.3,159.6,188.6,162.8z"/>
	<path class="st12" d="M214.9,285.8c1.5-1.5,2.9-3,4.3-4.6C217.8,282.7,216.3,284.3,214.9,285.8z"/>
	<path class="st12" d="M231.1,221.2c-0.3-0.5-0.6-1-0.9-1.4C230.6,220.2,230.9,220.7,231.1,221.2z"/>
	<path class="st12" d="M232.5,228.4c-0.2,10.1,0.1,20.2-0.1,30.2C232.7,248.5,232.3,238.4,232.5,228.4c0-2.6-0.3-4.8-1.2-6.8
		C232.3,223.5,232.6,225.8,232.5,228.4z"/>
	<path class="st12" d="M262.1,134.4c-0.7-0.5-1.4-0.6-2.4-0.5C260.7,133.8,261.5,133.9,262.1,134.4z"/>
	<path class="st12" d="M262.1,134.4c0.5,0.4,1,1,1.4,1.8c1.3,2.7,2.4,5.4,3.4,8.1c-1-2.7-2.1-5.4-3.4-8.1
		C263.1,135.3,262.7,134.8,262.1,134.4z"/>
	<path class="st12" d="M261.8,213.7c2.6-6.6,4.8-13.2,6.4-20.1C266.6,200.5,264.5,207.2,261.8,213.7z"/>
	<path class="st12" d="M269.3,152.6c-0.5-2.1-1-4.2-1.7-6.2C268.2,148.4,268.8,150.5,269.3,152.6z"/>
	<path class="st12" d="M269.3,188.5c-0.3,1.7-0.7,3.4-1.1,5.1C268.6,192,269,190.3,269.3,188.5z"/>
	<path class="st12" d="M477.5,139.9c2.5-0.8,4.9-1.6,7.4-2.3C482.4,138.3,479.9,139.1,477.5,139.9z"/>
	<path class="st12" d="M614.7,141.8c0.3,0.5,0.6,1,0.7,1.5C615.3,142.8,615.1,142.3,614.7,141.8z"/>
	<path class="st12" d="M615.5,145.2c0.1-0.7,0.1-1.3-0.1-1.9C615.6,143.9,615.7,144.6,615.5,145.2z"/>
	<path class="st6" d="M337,291.3C337,291.3,337,291.3,337,291.3l-29.9,0c6.2-2.5,7.5-7.3,7.2-13.3c-0.4-7.1,0.4-14.2-0.4-21.3
		c0.8-10.6,0.3-21.2,0.2-31.8c0-4-2.4-6.3-7.5-8.4h31.5c-4.3,1.7-7.7,4-8.2,8.5c-0.4,3.1-0.1,6.2-0.1,9.3c0,6,0.1,11.9-0.2,17.8
		c-0.1,2.4,0.7,3.3,2.8,3.6c-2.5-0.1-3,1.4-2.7,3.5c0.2,1.5-0.3,3,0.4,4.4c0,0.3-0.1,0.6-0.1,0.9c-0.5,4.3-0.2,8.5-0.3,12.8
		c0,0.3,0,0.6,0,0.9c0,0.5,0,1,0,1.5c0,0.7,0,1.4,0.1,2.1c0,0.1,0,0.2,0,0.3c0,0.1,0,0.3,0,0.4c0,0.3,0.1,0.5,0.1,0.8
		c0,0.2,0.1,0.4,0.1,0.6c0.1,0.6,0.3,1.1,0.5,1.6c0,0,0,0,0,0c0.2,0.4,0.3,0.8,0.5,1.1c0.1,0.3,0.3,0.5,0.4,0.8
		c0.2,0.2,0.3,0.5,0.5,0.7c0.6,0.8,1.5,1.5,2.5,2.1c0.3,0.2,0.6,0.3,0.9,0.5c0.2,0.1,0.3,0.1,0.5,0.2
		C336.2,291.1,336.6,291.2,337,291.3z"/>
	<path class="st11" d="M328.1,291.8c0.5,0.2,1,0.3,1.5,0.4C329.1,292.1,328.6,292,328.1,291.8z"/>
	<path class="st11" d="M330.5,285.6c-0.2-0.5-0.3-1.1-0.5-1.6C330.2,284.5,330.3,285.1,330.5,285.6z"/>
	<path class="st11" d="M336.8,256.1c0,0-0.1,0-0.1,0c0,0,0,0,0,0H336.8C336.7,256.1,336.7,256.1,336.8,256.1L336.8,256.1
		C336.7,256.1,336.7,256.1,336.8,256.1z"/>
	<path class="st11" d="M337,291.3C337,291.3,337,291.3,337,291.3l-10,0c0,0,0,0,0,0H337z"/>
	<path class="st11" d="M339.1,256.8c0.3,0.1,0.5,0.2,0.8,0.4C339.7,257.1,339.4,257,339.1,256.8z"/>
	<path class="st11" d="M339.9,257.2c0.1,0,0.2,0.1,0.3,0.1C340.1,257.3,340,257.3,339.9,257.2z"/>
	<path class="st11" d="M339,256.8c0,0,0.1,0,0.1,0C339.1,256.8,339,256.8,339,256.8z"/>
	<path class="st11" d="M341.1,257.8c0.1,0.1,0.3,0.2,0.4,0.2c-0.2-0.1-0.4-0.2-0.6-0.4C340.9,257.8,341,257.8,341.1,257.8z"/>
	<path class="st11" d="M336.9,256.1c0.8,0.2,1.5,0.4,2.1,0.7C338.3,256.5,337.6,256.3,336.9,256.1z"/>
	<path class="st11" d="M340.2,257.3c0.2,0.1,0.5,0.2,0.7,0.4C340.6,257.6,340.4,257.5,340.2,257.3z"/>
	<path class="st11" d="M342,258.5c0.1,0.1,0.2,0.1,0.3,0.2c-0.2-0.2-0.4-0.3-0.6-0.4C341.7,258.3,341.9,258.4,342,258.5z"/>
	<path class="st11" d="M342.8,259.1c0.3,0.2,0.6,0.5,0.8,0.8C343.3,259.6,343.1,259.3,342.8,259.1z"/>
	<path class="st11" d="M342.2,258.7c0.2,0.1,0.4,0.3,0.5,0.4C342.6,258.9,342.4,258.8,342.2,258.7z"/>
	<path class="st11" d="M352.3,278.3c0.2-0.2,0.4-0.3,0.7-0.5v0C352.7,278,352.5,278.1,352.3,278.3z"/>
	<path class="st11" d="M352.9,277.8L352.9,277.8c-0.1-0.2-0.1-0.4-0.1-0.6C352.9,277.4,352.9,277.6,352.9,277.8z"/>
	<path class="st9" d="M362.2,291.4c0.3,0.1,0.5,0.2,0.8,0.2C362.7,291.5,362.4,291.5,362.2,291.4z"/>
	<path class="st9" d="M367.6,291.7c-0.7,0-1.3,0-2,0.1c-0.6,0-1.2,0-1.7,0c0.5,0.1,1.1,0.1,1.7,0
		C366.3,291.7,366.9,291.7,367.6,291.7z"/>
	<path class="st3" d="M283.7,339.2c0.1,0,0.2,0,0.2,0c0,0.1,0.1,0.2,0.1,0.3c-0.1,0.3-0.2,0.3-0.3,0
		C283.6,339.4,283.6,339.3,283.7,339.2z"/>
	<path class="st7" d="M281.9,323.5c0.2,0.1,0.3,0.3,0.5,0.4C282.2,323.8,282,323.7,281.9,323.5C281.9,323.5,281.9,323.5,281.9,323.5
		z"/>
	<path class="st0" d="M287.9,291.6c0.2-0.1,0.4-0.1,0.7,0c-0.1,0.2-0.1,0.4-0.2,0.5C288.2,291.9,288,291.8,287.9,291.6z"/>
	<path class="st1" d="M270.7,225.2c-3.8,10.3-8.6,20.2-13.6,30c-0.9,0.1-1.7,0.2-2.4,0.3c-0.4,0-0.8,0.1-1.1,0.1
		c-1.4,0.1-2.4,0.1-3.2,0c-0.1,0-0.2,0-0.3-0.1c-0.1,0-0.2,0-0.2-0.1c-0.1,0-0.2-0.1-0.2-0.1c-0.1,0-0.1-0.1-0.2-0.1
		c-0.1,0-0.1-0.1-0.2-0.1c0,0,0,0,0,0c-0.1-0.1-0.2-0.2-0.3-0.2c-0.1-0.1-0.1-0.1-0.2-0.2c-0.1-0.1-0.1-0.2-0.2-0.3
		c0-0.1-0.1-0.2-0.1-0.4c0-0.1-0.1-0.2-0.1-0.2c0-0.1,0-0.2-0.1-0.3c0-0.2-0.1-0.4-0.1-0.6c-0.2-1.3-0.2-3.1-0.2-5.6c0,0,0,0,0,0
		c0-2.3,0-4.7,0.1-7c5.1-7.1,8.3-15.2,11.8-23.1c4.7-0.2,8.6,1.1,11.3,5.2C271.6,223.4,271.1,224.2,270.7,225.2z"/>
	<path class="st9" d="M145.2,267.2L145.2,267.2c-5.1-10.7-10-21.1-15.2-32C135.2,246.1,140.1,256.5,145.2,267.2z"/>
	<path class="st1" d="M336.7,256.1L336.7,256.1C336.6,256.1,336.6,256.1,336.7,256.1L336.7,256.1
		C336.7,256.1,336.7,256.1,336.7,256.1z"/>
	<path class="st1" d="M355.4,226.6c-0.1,0.3-0.3,0.5-0.4,0.8c-0.4,0.8-0.9,1.6-1.4,2.3c-1.5,2.4-3.2,4.6-4.9,6.8
		c-1.5,1.9-2.9,3.9-4.1,5.9c-0.5,0.8-1,1.7-1.6,2.5c-0.2,0.3-0.4,0.5-0.6,0.8v0c-0.4,0.5-0.8,1.1-1.2,1.6c-1.3,1.9-2.6,3.8-3.6,5.9
		c-0.1,0.3-0.3,0.6-0.4,0.9c-0.1,0.3-0.2,0.6-0.3,0.9c-0.1,0.1-0.1,0.3-0.2,0.5c0,0.2-0.1,0.3-0.1,0.5c-0.2,0-0.3,0.1-0.5,0.1
		c-0.1,0-0.2,0-0.2,0.1c-0.2,0.1-0.3,0.2-0.5,0.3c-0.1,0-0.1,0.1-0.2,0.2c-0.1,0.1-0.2,0.2-0.3,0.4c-0.1,0.1-0.2,0.3-0.2,0.5
		c-0.3,0.8-0.6,1.6-1.2,2.2c-0.8,0.8-1,2-1.7,2.9c-0.1,0.1-0.1,0.2-0.2,0.2c-0.4,0.4-0.9,0.7-1.6,0.8h0c-0.7-1.4-0.2-2.9-0.4-4.4
		c-0.3-2.2,0.2-3.7,2.7-3.5c-2.1-0.3-2.9-1.2-2.8-3.6c0.3-5.9,0.1-11.9,0.2-17.8c5.1-4.7,9.1-10.4,13.6-15.6
		c0.5-0.5,0.4-1.1-0.1-1.7C349.4,217.5,353.8,221,355.4,226.6z"/>
	<path class="st9" d="M336.8,256.1c0,0-0.1,0-0.1,0c0,0,0,0,0,0H336.8C336.7,256.1,336.7,256.1,336.8,256.1L336.8,256.1
		C336.7,256.1,336.7,256.1,336.8,256.1z"/>
	<path class="st11" d="M436,217.8c2.2,0.9,4.1,2.2,5.9,3.7C440.2,220,438.2,218.8,436,217.8z"/>
	<path class="st11" d="M446.7,284.2c0.6-0.7,1.2-1.5,1.8-2.3C447.9,282.8,447.3,283.5,446.7,284.2z"/>
	<path class="st11" d="M451.2,276.7c1-2.6,1.9-5.2,2.5-7.7C453.1,271.5,452.2,274.1,451.2,276.7c-0.6,1.4-1.2,2.8-2,4
		C450,279.5,450.6,278.1,451.2,276.7z"/>
	<path class="st11" d="M452.5,239.2c0.6,1.7,1,3.3,1.4,5C453.5,242.6,453,240.9,452.5,239.2z"/>
	<path class="st11" d="M454.9,262.5c0.7-5.5,0.5-10.9-0.6-16.3C455.4,251.6,455.6,257,454.9,262.5z"/>
	<path class="st2" d="M211.8,291.4c0,0-0.1,0.1-0.2,0.1c-0.1,0.1-0.2,0.1-0.3,0.2c-0.1,0-0.2,0.1-0.3,0.1c-0.4,0.1-0.9,0-1.4,0
		c-0.6-0.1-1.2-0.2-1.8,0.1h0c-7.7,0-15.5,0-23.2-0.1c-0.1-0.4-0.1-0.8-0.2-1.2c3.9-1.5,5.4-4.4,5.4-8.5c0-18.1-0.2-36.2,0-54.3
		c0.1-5.6-1.4-9.7-7.2-11.5h28.7c-5.5,2.2-6.4,6.6-6.3,11.8c0.1,17.7,0,35.5,0.1,53.2c0,4.1,0.9,7.7,5.5,9c0.2,0.2,0.4,0.3,0.6,0.5
		C211.3,291,211.5,291.2,211.8,291.4z"/>
	<path class="st1" d="M331,336.1c0,0.1,0,0.1-0.1,0.2c0,0,0,0.1-0.1,0.1c-0.1,0.2-0.3,0.4-0.5,0.5c-0.1,0.1-0.2,0.1-0.3,0.2
		c-0.1,0-0.2,0.1-0.3,0.1c-0.2,0.1-0.3,0.1-0.5,0.2c-0.2,0.1-0.3,0.1-0.5,0.1c-0.1,0-0.2,0-0.3,0.1c-0.3,0.1-0.7,0.1-1,0.1
		c-0.6,0-1.2,0.1-1.8,0.1c-0.8,0-1.6,0-2.4,0c-0.5,0-1.1,0-1.6,0c-0.6,0-1.1,0-1.7,0c-0.6,0-1.2,0-1.8,0c0.2-0.5,0.5-1.1,0.7-1.6
		c0.2-0.4,0.4-0.9,0.6-1.3c0.5-1.1,0.9-2.1,1.3-3.1c2.6-0.8,3-4.6,6.2-4.5h0c0.1,0.1,0.3,0.2,0.4,0.4c0.2,0.2,0.4,0.4,0.6,0.6
		c0.2,0.2,0.4,0.4,0.5,0.7c0,0,0,0,0,0c0.2,0.2,0.3,0.5,0.4,0.7c0.1,0.2,0.3,0.5,0.4,0.7c0.2,0.4,0.4,0.8,0.6,1.3
		c0.1,0.2,0.2,0.4,0.2,0.6c0.1,0.2,0.2,0.4,0.2,0.6c0.2,0.7,0.5,1.4,0.7,2c0,0.1,0.1,0.2,0.1,0.4C331.1,335.6,331.1,335.9,331,336.1
		z"/>
	<path class="st9" d="M326.8,327.3L326.8,327.3c0-0.1,0-0.2,0-0.4C326.8,327,326.8,327.2,326.8,327.3z"/>
	<path class="st10" d="M143.2,311.7c-1.5,0.4-3.1,0.8-4.6,1.2c0-0.4,0-0.7,0-1.1c1.5-0.5,2.9-1.2,4.6-0.8
		C143.2,311.2,143.2,311.5,143.2,311.7z"/>
	<path class="st13" d="M140.9,325c0.5-0.9,0.8-0.4,1.1,0.1C141.7,325.1,141.3,325,140.9,325z"/>
	<path class="st8" d="M157.5,322.9c-1.7-1.5-1.9-3.6-3.2-4.9c-0.1-0.1-0.2-0.2-0.3-0.3c-0.1-0.1-0.2-0.2-0.3-0.2
		c-2.4-4-6.2-5.3-10.5-5.8c0-0.3,0-0.5,0-0.8c2.8-0.4,5.6,0.2,8.5,0.3c3.7,0.2,5.3,1.9,5.1,5.5C157,318.6,157.2,320.6,157.5,322.9z"
		/>
	<path class="st1" d="M184.7,291.7c-0.9,0.5-1.8,0.4-2.9,0.2c0.7-1.1,1.5-1.5,2.7-1.4C184.5,291,184.6,291.4,184.7,291.7z"/>
</g>
</svg>
