<svg id="Layer_1" data-name="Layer 1" xmlns="http://www.w3.org/2000/svg" xmlns:xlink="http://www.w3.org/1999/xlink" viewBox="0 0 1200 1200"><defs><style>.cls-1{fill:url(#linear-gradient);}.cls-2{fill:url(#linear-gradient-2);}.cls-3{fill:url(#linear-gradient-3);}.cls-4{fill:url(#linear-gradient-4);}.cls-5{fill:url(#linear-gradient-5);}.cls-6{fill:url(#linear-gradient-6);}.cls-7{fill:url(#linear-gradient-7);}.cls-8{fill:url(#linear-gradient-8);}.cls-9{fill:url(#linear-gradient-9);}.cls-10{fill:url(#linear-gradient-10);}</style><linearGradient id="linear-gradient" x1="650.61" y1="743.63" x2="1028.69" y2="743.63" gradientUnits="userSpaceOnUse"><stop offset="0" stop-color="#008816"/><stop offset="0.04" stop-color="#008b13"/><stop offset="0.26" stop-color="#009908"/><stop offset="0.53" stop-color="#00a202"/><stop offset="1" stop-color="#00a400"/></linearGradient><linearGradient id="linear-gradient-2" x1="208.79" y1="509.49" x2="546.21" y2="509.49" xlink:href="#linear-gradient"/><linearGradient id="linear-gradient-3" x1="939.99" y1="750.35" x2="972.17" y2="750.35" xlink:href="#linear-gradient"/><linearGradient id="linear-gradient-4" x1="357.22" y1="412" x2="446" y2="412" xlink:href="#linear-gradient"/><linearGradient id="linear-gradient-5" x1="415.55" y1="302.59" x2="546.21" y2="302.59" xlink:href="#linear-gradient"/><linearGradient id="linear-gradient-6" x1="62.18" y1="583.69" x2="1151.75" y2="583.69" xlink:href="#linear-gradient"/><linearGradient id="linear-gradient-7" x1="681.32" y1="712.53" x2="681.32" y2="712.53" xlink:href="#linear-gradient"/><linearGradient id="linear-gradient-8" x1="749.21" y1="750.35" x2="781.39" y2="750.35" xlink:href="#linear-gradient"/><linearGradient id="linear-gradient-9" x1="910.45" y1="795.97" x2="910.46" y2="795.97" xlink:href="#linear-gradient"/><linearGradient id="linear-gradient-10" x1="146.58" y1="568.79" x2="146.58" y2="568.79" xlink:href="#linear-gradient"/></defs><path class="cls-1" d="M1020.4,750.35a62.92,62.92,0,0,1-18.75,45.58h0a64.9,64.9,0,0,1-15.15,11.43,61.06,61.06,0,0,1-17.79,6.33,68.92,68.92,0,0,1-25.29,0A61.39,61.39,0,0,1,917.35,802a18.43,18.43,0,0,1-17.08,11.42H888.86a18.47,18.47,0,0,1-18.5-18.5V748a35,35,0,0,0-.66-7.22,13.58,13.58,0,0,0-1.29-3.78,5.21,5.21,0,0,0-.77-1.11h0a5.72,5.72,0,0,0-1.5-1.21,7.49,7.49,0,0,0-2.29-.75,16.1,16.1,0,0,0-2.81-.23,13.7,13.7,0,0,0-3.77.45,5.85,5.85,0,0,0-1.82.84,6.12,6.12,0,0,0-1,.91,5.6,5.6,0,0,0-.77,1.11,11.4,11.4,0,0,0-.88,2.16,30.92,30.92,0,0,0-1.06,8.84v46.89a18.49,18.49,0,0,1-18.5,18.5H821.82a18.2,18.2,0,0,1-5.35-.8,18.25,18.25,0,0,1-5.35.8H799.71a18.66,18.66,0,0,1-10.85-3.54,57,57,0,0,1-23.56,5,67.59,67.59,0,0,1-12.65-1.17,61.93,61.93,0,0,1-12.1-3.6A64.09,64.09,0,0,1,719.68,796h0a65.3,65.3,0,0,1-11.4-15.17c-.34-.62-.66-1.25-1-1.88v16a18.49,18.49,0,0,1-18.5,18.5H677.4a18.47,18.47,0,0,1-18.5-18.5V748.56a88.83,88.83,0,0,1,1.79-18.49,60.34,60.34,0,0,1,6-16.73,49.57,49.57,0,0,1,6.87-9.68,50.54,50.54,0,0,1,13.21-10.41,52.62,52.62,0,0,1,15.89-5.54,63.81,63.81,0,0,1,11.24-1c.91,0,1.82,0,2.81.09a27.66,27.66,0,0,1,3.46.44,18.52,18.52,0,0,1,11.7,7.76c1-.59,1.93-1.16,2.93-1.7a61.79,61.79,0,0,1,17.8-6.32,67.58,67.58,0,0,1,12.65-1.16A66.76,66.76,0,0,1,778,687a62,62,0,0,1,12.09,3.6,63.83,63.83,0,0,1,20.83,14.15h0c1.18,1.19,2.29,2.42,3.38,3.69a49.4,49.4,0,0,1,5-6.07h0a53.24,53.24,0,0,1,19.09-12.57,62.7,62.7,0,0,1,22.68-4A65.63,65.63,0,0,1,878.26,688a54.31,54.31,0,0,1,15.69,7,53.63,53.63,0,0,1,8.86,7.32h0a50.24,50.24,0,0,1,4.65,5.55c1-1.1,1.95-2.18,3-3.21h0a65.61,65.61,0,0,1,15.17-11.39,61.58,61.58,0,0,1,17.8-6.32,67.51,67.51,0,0,1,12.65-1.16,59.15,59.15,0,0,1,15.06,1.89l.85.23V670.11a18.51,18.51,0,0,1,18.5-18.5h11.41a18.4,18.4,0,0,1,5,.72,195.63,195.63,0,0,0-33.38-45,191.77,191.77,0,0,0-44.7-34.2,173.78,173.78,0,0,0-51-18.25,202.06,202.06,0,0,0-38.19-3.51,208.63,208.63,0,0,0-38.7,3.49,177.76,177.76,0,0,0-35,10.35c-22.21,9.19-42.33,22.89-60.73,41.61h0c-18.4,18.74-31.9,39.23-41,61.84s-13.64,47.44-13.65,75,4.58,52.4,13.54,75,22.36,43.11,40.59,61.84A183.62,183.62,0,0,0,749,914.29a175.25,175.25,0,0,0,51.54,18.09,212.15,212.15,0,0,0,39.16,3.5,208.49,208.49,0,0,0,38.68-3.49,177.78,177.78,0,0,0,35-10.36c22.21-9.18,42.34-22.89,60.75-41.6h0c18.39-18.74,31.9-39.23,40.95-61.83s13.65-47.44,13.66-75A201.81,201.81,0,0,0,1020.4,685Z"/><path class="cls-2" d="M530.53,517a111,111,0,0,1-15.68,15.13,242.82,242.82,0,0,1-27.15,18.4h0a100,100,0,0,1-26.44,11A110,110,0,0,1,433.64,565a128,128,0,0,1-51.45-11.11A124.57,124.57,0,0,1,340.24,524h0l-.09-.1-.09-.09h0a180.07,180.07,0,0,1-37.78-63.67,219,219,0,0,1-11.64-71.74,254,254,0,0,1,4.54-47.44,125.41,125.41,0,0,0-18.53,5.48,111.37,111.37,0,0,0-34.91,21.52h0a99.48,99.48,0,0,0-20.12,24.76,95.69,95.69,0,0,0-10.73,29.41,121,121,0,0,0-2.1,23,104.82,104.82,0,0,0,4.39,31.17A81.37,81.37,0,0,0,226,501.45h0a116.73,116.73,0,0,0,20.55,21.26,123.07,123.07,0,0,0,25.84,15.79l0,0a566.16,566.16,0,0,0,70.44,26.41h0q40.76,12.51,81.47,28.24a386.39,386.39,0,0,1,76.39,39.34h0a167.46,167.46,0,0,1,33.38,29.75A189.15,189.15,0,0,1,546.21,678V489.24a89.81,89.81,0,0,1-6.59,14.68A86.76,86.76,0,0,1,530.53,517Z"/><path class="cls-3" d="M971,757.17a18.34,18.34,0,0,0,1.17-6.82,17.92,17.92,0,0,0-1.18-6.77,15.46,15.46,0,0,0-3.51-5.23,16,16,0,0,0-3.75-2.89,13.88,13.88,0,0,0-4.07-1.42,18.88,18.88,0,0,0-3.58-.32,18.51,18.51,0,0,0-3.46.31,13.92,13.92,0,0,0-2.76.83,15.36,15.36,0,0,0-5.1,3.58,16.12,16.12,0,0,0-3.61,5.33,17.2,17.2,0,0,0-1.16,6.58,17.86,17.86,0,0,0,1.17,6.77,15.52,15.52,0,0,0,3.51,5.22h0a15.8,15.8,0,0,0,3.76,2.89,13.71,13.71,0,0,0,4.06,1.42,19,19,0,0,0,3.59.31,18.33,18.33,0,0,0,5.19-.67,13.21,13.21,0,0,0,3.79-1.8,16.52,16.52,0,0,0,2.46-2.1h0A15.88,15.88,0,0,0,971,757.17Z"/><path class="cls-4" d="M370.32,439.28l.52,1.2a62.21,62.21,0,0,0,5.26,10.28,78.24,78.24,0,0,0,7.59,10.11,76.08,76.08,0,0,0,19.54,16,49.61,49.61,0,0,0,13.5,5.27,32.83,32.83,0,0,0,7,.78,24.24,24.24,0,0,0,14.25-4.42A19.21,19.21,0,0,0,440,475.8a28,28,0,0,0,2.37-4.75,54.22,54.22,0,0,0,3.08-13.75,106,106,0,0,0,.56-11.39,222.87,222.87,0,0,0-1.47-23.4,108.92,108.92,0,0,0-10.69-29.46,96.68,96.68,0,0,0-18.76-24.3,107.34,107.34,0,0,0-30.35-20.24,119.32,119.32,0,0,0-22.54-7.39,160.8,160.8,0,0,0-5,39.11,141.16,141.16,0,0,0,3.19,30.07A132.41,132.41,0,0,0,370.32,439.28Z"/><path class="cls-5" d="M541.76,257.81a97.32,97.32,0,0,0-3.92-15.7l-.35-1.07a48.53,48.53,0,0,0-7.78-16,33.42,33.42,0,0,0-10.36-9,38.21,38.21,0,0,0-8.63-3.5,53.43,53.43,0,0,0-14-1.75A87.33,87.33,0,0,0,470,215.33a120.17,120.17,0,0,0-27,12.82,113,113,0,0,0-15.43,11.78l-.92.79c-3.82,3.05-7.52,6.3-11.1,9.69a212.52,212.52,0,0,1,73.14,46h0A206.13,206.13,0,0,1,528,347.59a202.36,202.36,0,0,1,18.17,46.89V324.93c-.06-11.1-.31-23.1-1-34.75A286.82,286.82,0,0,0,541.76,257.81Z"/><path class="cls-6" d="M1062.11,38.91H151.83a89.64,89.64,0,0,0-89.65,89.64v910.28a89.65,89.65,0,0,0,89.65,89.65h910.28a89.64,89.64,0,0,0,89.64-89.65V128.55A89.64,89.64,0,0,0,1062.11,38.91Zm50.44,817.84c-14.43,34.91-36.12,66.74-64.59,95.2h0c-28.46,28.48-60.3,50.17-95.21,64.6s-72.79,21.6-113.11,21.59-78.18-7.14-113-21.59S660.1,980.4,631.82,951.9h0c-24-24.12-43.08-50.67-57.08-79.45-.56,2-1.14,4-1.75,6a204,204,0,0,1-31,61.62,220.4,220.4,0,0,1-31.91,34.59A246.05,246.05,0,0,1,429,1022.37c-29.92,10.58-62.52,15.76-97.5,15.76-34.75,0-67.26-5.49-97.16-16.69a246.72,246.72,0,0,1-81.19-50.25h0a228.39,228.39,0,0,1-44.64-55.7,217.38,217.38,0,0,1-24.18-66.11,257.38,257.38,0,0,1-4.55-49.06,18.51,18.51,0,0,1,18.5-18.5h68.47a18.51,18.51,0,0,1,18.5,18.5A148.83,148.83,0,0,0,191,842.81a118.08,118.08,0,0,0,17,35.07A127.06,127.06,0,0,0,225.81,898h0a135.92,135.92,0,0,0,47,28.28c17.8,6.33,38,9.63,60.8,9.63,22.6,0,42.52-3,60-8.82a131.6,131.6,0,0,0,45.57-25.7h0a105.62,105.62,0,0,0,23.34-28.58,117.24,117.24,0,0,0,12.71-36.46,165.14,165.14,0,0,0,2.51-29.57A133.78,133.78,0,0,0,473,770.16a100.63,100.63,0,0,0-13.71-29.6A103,103,0,0,0,445,723.9a209.12,209.12,0,0,0-39.2-29.1,242.1,242.1,0,0,0-47.35-20.74h0q-55.41-17.77-110.8-37.65h0a251.52,251.52,0,0,1-55-27.57,245.8,245.8,0,0,1-46.12-40.05h0A160.28,160.28,0,0,1,114,512.94c-7.19-21-10.63-44-10.63-68.86a222.26,222.26,0,0,1,9-64.27,186.43,186.43,0,0,1,27.29-55.54,199.24,199.24,0,0,1,28.1-31.35h0a213.71,213.71,0,0,1,72.4-43.44c26.93-9.63,56.44-14.32,88.2-14.32,5.3,0,10.47.19,15.54.5A335.65,335.65,0,0,1,378.92,196a289.94,289.94,0,0,1,50-38.93,213.19,213.19,0,0,1,36.69-18c16.77-6.21,34.13-9.86,51.64-9.86a117.41,117.41,0,0,1,23.29,2.27,111.55,111.55,0,0,1,22.78,7.16c14.88,6.47,28.89,16.46,41.37,29.92a175,175,0,0,1,23,31.56l.4.73c6.24,12,10.83,21.44,14.24,29.17a152.57,152.57,0,0,1,7.13,18.87,59.33,59.33,0,0,1,2,9.48,40.87,40.87,0,0,1,.29,4.81c0,.83,0,1.6-.08,2.33V528.73c2.32-2.4,4.67-4.76,7.08-7.07a270,270,0,0,1,52.39-39.06h0a248.55,248.55,0,0,1,61.37-25.13,266,266,0,0,1,67.12-8.36c40.32,0,78.2,7.16,113.11,21.61s66.74,36.12,95.2,64.58h0c28.46,28.47,50.15,60.3,64.58,95.22s21.62,72.79,21.61,113.11S1127,821.85,1112.55,856.75Z"/><polygon class="cls-7" points="681.32 712.53 681.32 712.53 681.32 712.53 681.32 712.53"/><path class="cls-8" d="M773.06,735.44a13.55,13.55,0,0,0-4-1.4,18.69,18.69,0,0,0-3.57-.32,17.81,17.81,0,0,0-5.09.68,13.53,13.53,0,0,0-3.88,1.84,17.22,17.22,0,0,0-2.59,2.17h0a16.35,16.35,0,0,0-2.92,3.9,14.86,14.86,0,0,0-1.47,4.29,20.81,20.81,0,0,0-.32,3.75,19.41,19.41,0,0,0,.32,3.62,14.56,14.56,0,0,0,.85,2.91,15.79,15.79,0,0,0,3.63,5.31h0a16.91,16.91,0,0,0,3.93,3,13.42,13.42,0,0,0,4.06,1.44,18,18,0,0,0,3.48.31,17.08,17.08,0,0,0,4.91-.65,13.34,13.34,0,0,0,3.77-1.81,18.07,18.07,0,0,0,2.54-2.16,15.84,15.84,0,0,0,3.52-5.23,18.14,18.14,0,0,0,1.17-6.77,18.34,18.34,0,0,0-1.17-6.82,16.89,16.89,0,0,0-7.16-8.09Z"/><polygon class="cls-9" points="910.45 795.97 910.46 795.97 910.45 795.97 910.45 795.97"/><polygon class="cls-10" points="146.58 568.79 146.58 568.79 146.58 568.79 146.58 568.79"/></svg>