<?xml version="1.0" encoding="utf-8"?>
<!-- Generator: Adobe Illustrator 26.5.0, SVG Export Plug-In . SVG Version: 6.00 Build 0)  -->
<svg version="1.1" id="Layer_1" xmlns="http://www.w3.org/2000/svg" xmlns:xlink="http://www.w3.org/1999/xlink" x="0px" y="0px"
	 viewBox="0 0 320 320" style="enable-background:new 0 0 320 320;" xml:space="preserve">
<style type="text/css">
	.st0{fill:#2DB12D;}
</style>
<path class="st0" d="M161.77,5.58c-82.84,0-150,67.15-150,150c0,82.84,67.16,150,150,150s150-67.16,150-150
	C311.77,72.73,244.61,5.58,161.77,5.58z M101.29,79.72c0-0.69,0.41-1.32,1.21-1.9c0.81-0.57,1.78-1.09,2.94-1.56
	c-1.85,0-3.69,0.24-5.53,0.69c-1.84,0.47-3.57,0.7-5.19,0.7l-3.11-0.35c0-0.91,0.35-1.37,1.04-1.37c7.15-3.24,14.05-6.11,20.73-8.65
	l1.04-0.34c0.47-0.46,0.69-1.15,0.69-2.08v-1.03c-2.99,0-5.3,0.17-6.9,0.51c-1.62,0.35-3.11,0.59-4.5,0.7
	c-1.38,0.11-2.76,0.28-4.15,0.51c-0.92,0-1.6-0.12-2.07-0.34c-0.46-0.23-0.74-0.41-0.87-0.52c-0.11-0.11-0.28-0.28-0.51-0.52
	c-0.24-0.23-0.35-0.58-0.35-1.04c0-1.14,0.41-1.84,1.21-2.07c0.82-0.22,1.73-0.58,2.77-1.04c1.03-0.45,1.9-1.03,2.59-1.73
	l-1.04-0.34c-3.22,0-5.06-0.05-5.53-0.17c-0.46-0.12-0.8-0.63-1.04-1.56c0-0.91,0.58-1.37,1.73-1.37c3.69-2.09,7.61-3.24,11.76-3.46
	c1.15-0.69,1.73-1.73,1.73-3.11c0-1.39,0.17-2.25,0.5-2.6c0.35-0.34,0.99-0.75,1.92-1.21c3.44-1.38,7.13-2.29,11.05-2.76
	c13.13-2.77,26.38-4.72,39.74-5.88l7.61-0.35c2.77,0,5.3,0.24,7.6,0.7h2.76c5.99-1.39,12.11-2.08,18.32-2.08
	c5.55,0,11.17,0.47,16.94,1.38c1.6,0,2.95,0.24,3.96,0.7c1.04,0.47,1.58,0.92,1.58,1.38c0,0.47-0.23,0.92-0.71,1.38
	c-3.23,1.62-7.62,2.42-13.13,2.42l-4.5,0.69l10.01,0.35c1.18,0,1.75,0.34,1.75,1.04c0,0.69-0.23,1.1-0.68,1.21
	c-0.48,0.11-0.96,0.34-1.41,0.69c-0.45,0.34-0.95,0.52-1.54,0.52c-0.59,0-0.87,0.34-0.87,1.03c1.18,0,1.74,0.35,1.74,1.04
	s-0.11,1.04-0.34,1.04c-3.49,0-5.2,0.8-5.2,2.42c0,0.46,0.14,0.69,0.36,0.69l2.06,0.68c1.38,0,2.44,0.13,3.12,0.36h1.01
	c1.18,0.46,1.75,1.02,1.75,1.73c0,0.46-0.12,0.68-0.34,0.68c-1.86,1.16-4.16,1.85-6.92,2.07c-0.68,0-1.38,0.35-2.08,1.04
	c0.45,0.47,1.04,0.69,1.74,0.69c2.08,0,3.74,0.17,5.01,0.52c1.26,0.35,2.47,0.52,3.63,0.52c0.22,0.23,0.59,0.41,1.04,0.52
	c0.45,0.11,0.67,0.52,0.67,1.21s-0.22,1.1-0.67,1.21s-0.82,0.28-1.04,0.52c-1.61,0.69-3.58,1.03-5.88,1.03
	c-0.68,0.24-1.21,0.69-1.55,1.39c-0.36,0.69-0.87,1.27-1.55,1.72h-0.36c-2.05,0-4.02,0.81-5.88,2.43c2.98,0.46,6.13,0.8,9.34,1.03
	c5.51,0.23,11.08,1.15,16.59,2.77c-2.53,2.06-5.17,3.1-7.93,3.1c-4.39,0-8.89-0.11-13.5-0.35c-3.76-0.18-7.52-0.29-11.29-0.33
	c-2.36-0.76-4.73-1.21-7.08-1.36c-2.01-0.21-3.99-0.53-5.86-0.97c1.17-1.53,2.4-2.31,3.69-2.31h0.23c0.42-0.42,0.74-0.97,0.97-1.62
	c0.21-0.67,0.54-1.09,0.97-1.32c1.44,0,2.68-0.32,3.68-0.97c0.15-0.23,0.37-0.39,0.66-0.49c0.28-0.11,0.42-0.5,0.42-1.15
	c0-0.65-0.14-1.04-0.42-1.14c-0.29-0.11-0.51-0.28-0.66-0.5c-0.72,0-1.48-0.16-2.27-0.49c-0.79-0.33-1.84-0.49-3.14-0.49
	c-0.44,0-0.81-0.21-1.09-0.65c0.44-0.66,0.88-0.99,1.3-0.99c1.73-0.21,3.18-0.86,4.34-1.96c0.14,0,0.21-0.21,0.21-0.65
	c0-0.66-0.35-1.2-1.09-1.64h-0.64c-0.42-0.21-1.09-0.33-1.95-0.33l-1.29-0.65c-0.14,0-0.23-0.21-0.23-0.65
	c0-1.53,1.07-2.29,3.26-2.29c0.14,0,0.21-0.34,0.21-0.99c0-0.65-0.35-0.98-1.09-0.98c0-0.66,0.18-0.98,0.55-0.98
	s0.68-0.17,0.97-0.49c0.28-0.33,0.58-0.54,0.88-0.65c0.28-0.11,0.42-0.49,0.42-1.15c0-0.66-0.35-0.98-1.09-0.98l-6.28-0.33
	l2.82-0.66c3.46,0,6.21-0.75,8.24-2.29c0.3-0.43,0.44-0.86,0.44-1.3s-0.34-0.87-0.99-1.3c-0.63-0.44-1.48-0.67-2.49-0.67
	c-3.61-0.87-7.14-1.31-10.61-1.31c-3.9,0-7.74,0.66-11.5,1.98h-1.72c-1.45-0.44-3.04-0.67-4.78-0.67l-4.77,0.33
	c-8.38,1.09-16.68,2.94-24.92,5.57c-2.46,0.44-4.77,1.3-6.93,2.61c-0.58,0.44-0.98,0.82-1.2,1.14c-0.21,0.33-0.32,1.15-0.32,2.46
	s-0.36,2.29-1.08,2.95c-2.61,0.21-5.07,1.3-7.38,3.27c-0.72,0-1.08,0.44-1.08,1.31c0.15,0.88,0.36,1.35,0.65,1.47
	c0.29,0.11,1.45,0.16,3.47,0.16l0.65,0.32c-0.43,0.67-0.98,1.22-1.62,1.64c-0.66,0.44-1.23,0.77-1.74,0.99
	c-0.5,0.21-0.76,0.88-0.76,1.95c0,0.44,0.07,0.78,0.22,0.99c0.14,0.22,0.25,0.38,0.32,0.49c0.08,0.11,0.25,0.28,0.55,0.49
	c0.29,0.22,0.72,0.32,1.29,0.32c0.87-0.21,1.74-0.37,2.6-0.48c0.88-0.1,1.81-0.33,2.83-0.66c1-0.32,2.45-0.48,4.33-0.48v0.97
	c0,0.88-0.15,1.53-0.44,1.97l-0.65,0.32c-4.19,2.41-8.52,5.13-13,8.19c-0.43,0-0.65,0.44-0.65,1.3l0.36,0.06
	c-3.25,0.84-6.26,1.26-9.03,1.26C102.22,82.14,101.29,81.33,101.29,79.72z M140.47,79.84c0,4.15-0.03,6.44-0.1,6.87
	c-0.08,0.42-0.26,0.77-0.55,0.98c-0.43,0-0.72-0.16-0.86-0.5c-0.15-0.32-0.26-0.64-0.33-0.96c-0.08-0.32-0.15-0.59-0.22-0.83
	c-0.07-0.21-0.1-0.56-0.1-0.98l-0.66-3.93C138.53,80.06,139.46,79.84,140.47,79.84z M119.22,81.74l-0.18-1.59
	c0.79-0.21,1.57-0.31,2.36-0.31c-0.72,0.44-1.33,0.93-1.85,1.48C119.42,81.46,119.32,81.59,119.22,81.74z M133.25,266.53
	c-1.95,0.11-3.74,0.39-5.34,0.84h-0.7c0,1.86-0.12,3.57-0.34,5.21v4.47c-1.84-2.76-3.11-5.63-3.81-8.64
	c-2.07,0.23-3.91,0.59-5.53,1.04c-0.46,0-0.91-0.05-1.38-0.17c-0.46-0.11-0.86-0.59-1.21-1.37c-0.35-0.82-0.52-1.55-0.52-2.25
	c0-0.45,0.69-1.04,2.08-1.72l0.34-0.36c-2.07,0-3.57,0.25-4.48,0.7h-1.05v-0.34c-0.46,0-0.74-0.2-0.87-0.53
	c-0.11-0.34-0.28-0.62-0.5-0.88h0.33l-0.33-0.33c0-0.45,0.28-0.87,0.85-1.21c0.58-0.34,1.21-0.73,1.9-1.21
	c2.77-1.6,5.88-2.98,9.34-4.14v-4.16c-1.86,0-3.18,0.11-3.98,0.34c-0.8,0.25-1.67,0.36-2.59,0.36l-5.19,0.34l-0.68,0.34
	c-0.23,0-0.36-0.11-0.36-0.34h-0.69c-0.22-0.22-0.46-0.39-0.68-0.5c-0.23-0.12-0.58-0.65-1.05-1.58c0-0.9,0.13-1.49,0.36-1.71
	c0.22-0.23,1.09-0.71,2.58-1.38c1.51-0.71,2.48-1.27,2.94-1.75c-0.46-0.22-1.78-0.33-3.96-0.33c-2.2,0-3.52-0.34-3.98-1.04
	l-0.35-0.68c0-0.48,0.46-0.93,1.39-1.41h0.34c3.92-2.05,7.96-3.2,12.09-3.43c0.7,0,1.15-0.19,1.39-0.53
	c0.23-0.34,0.34-1.15,0.34-2.42c0-1.27,0.11-2.08,0.35-2.42c0.23-0.34,0.69-0.62,1.38-0.87c0-27.65-0.11-49.19-0.34-64.63
	c-1.85,0.25-3.46,0.59-4.84,1.04c-0.46,0-1.16-0.23-2.08-0.68l-1.04-3.12l0.35-0.67c0.23-0.23,0.81-0.59,1.73-1.04l0.34-0.37
	c-1.84,0-3.11,0.14-3.8,0.37c-0.69,0.22-1.26,0.33-1.73,0.33c-0.46,0-1.04-0.56-1.73-1.71c0.93-1.86,3.82-3.83,8.65-5.88l3.8-1.74
	l-0.35-3.46c-1.38,0-2.7,0.14-3.97,0.36c-1.26,0.23-2.47,0.4-3.63,0.51c-1.15,0.11-2.3,0.28-3.45,0.53c-0.69,0-1.38-0.25-2.07-0.7
	c-0.71-0.45-1.16-1.15-1.39-2.08c0-0.68,0.23-1.15,0.68-1.38c0.47-0.22,1.27-0.82,2.42-1.72c0.24,0,0.52-0.05,0.88-0.19
	c0.33-0.11,0.63-0.51,0.85-1.21l-0.69-0.34c-3.46,0-5.3-0.06-5.52-0.17c-0.23-0.11-0.47-0.39-0.69-0.87l-0.35-0.67
	c0-0.48,0.24-0.76,0.69-0.88c0.46-0.11,0.81-0.28,1.04-0.5c3.22-1.86,6.68-3.01,10.36-3.46c0.93,0,1.39-0.82,1.39-2.42l-0.35-2.08
	c0-0.45,0.11-0.76,0.35-0.87c0.23-0.12,0.45-0.29,0.69-0.51c0.23-0.23,0.52-0.39,0.86-0.53c0.35-0.12,0.63-0.29,0.87-0.51h0.34
	v-5.18c0-2.53,0.69-4.61,2.08-6.24c0.45-0.45,0.69-1.38,0.69-2.76l-0.35-0.67c-1.16-16.14-2.07-26.49-2.76-31.11l-0.01-0.11
	c0.25,0.17,0.56,0.25,0.93,0.25c2.75,0,5.85-0.98,9.33-2.94l0.43,5.9c0.43,4.37,1,14.16,1.73,29.45l0.22,0.64
	c0,1.3-0.15,2.18-0.43,2.61c-0.88,1.54-1.31,3.51-1.31,5.91v4.9h-0.21c-0.15,0.21-0.33,0.37-0.55,0.48c-0.21,0.13-0.4,0.29-0.54,0.5
	c-0.15,0.21-0.29,0.37-0.43,0.48c-0.15,0.11-0.22,0.4-0.22,0.83l0.22,1.97c0,1.51-0.29,2.29-0.87,2.29
	c-2.31,0.42-4.48,1.51-6.5,3.27c-0.14,0.21-0.36,0.37-0.65,0.48s-0.44,0.37-0.44,0.83l0.22,0.64c0.15,0.45,0.29,0.71,0.44,0.82
	c0.14,0.11,1.29,0.16,3.46,0.16l0.43,0.32c-0.14,0.67-0.32,1.04-0.53,1.14c-0.22,0.14-0.4,0.19-0.55,0.19
	c-0.72,0.85-1.23,1.41-1.52,1.63c-0.28,0.21-0.43,0.66-0.43,1.3c0.15,0.88,0.43,1.54,0.87,1.97s0.87,0.67,1.3,0.67
	c0.72-0.24,1.45-0.4,2.17-0.51c0.72-0.11,1.48-0.27,2.27-0.48c0.8-0.21,1.63-0.35,2.49-0.35l0.22,3.28l-2.38,1.65
	c-3.03,1.94-4.84,3.81-5.42,5.57c0.43,1.09,0.79,1.62,1.08,1.62s0.65-0.11,1.09-0.32c0.43-0.21,1.22-0.35,2.38-0.35l-0.21,0.35
	c-0.59,0.43-0.95,0.77-1.09,0.99l-0.22,0.63l0.65,2.96c0.58,0.43,1.02,0.64,1.31,0.64c0.86-0.43,1.87-0.75,3.03-0.99
	c0.14,14.62,0.21,35.02,0.21,61.19c-0.43,0.24-0.72,0.51-0.86,0.83c-0.15,0.32-0.22,1.09-0.22,2.29c0,1.2-0.07,1.97-0.21,2.29
	c-0.15,0.32-0.43,0.5-0.87,0.5c-2.6,0.22-5.13,1.31-7.59,3.25h-0.21c-0.58,0.45-0.87,0.88-0.87,1.33l0.22,0.64
	c0.29,0.67,1.12,0.99,2.49,0.99s2.2,0.1,2.49,0.32c-0.29,0.45-0.9,0.98-1.84,1.65c-0.94,0.64-1.49,1.09-1.63,1.3
	c-0.14,0.21-0.22,0.77-0.22,1.63c0.29,0.87,0.51,1.38,0.66,1.49c0.14,0.1,0.29,0.26,0.43,0.48h0.43c0,0.21,0.08,0.32,0.22,0.32
	l0.43-0.32l3.26-0.32c0.57,0,1.12-0.11,1.62-0.35c0.5-0.21,1.33-0.32,2.5-0.32v3.94c-2.17,1.09-4.12,2.4-5.86,3.92
	c-0.43,0.45-0.83,0.82-1.19,1.14s-0.54,0.72-0.54,1.15l0.21,0.32h-0.21c0.14,0.24,0.25,0.5,0.32,0.82c0.08,0.32,0.25,0.51,0.54,0.51
	v0.32h0.66c0.57-0.43,1.51-0.67,2.81-0.67l-0.21,0.35c-0.87,0.64-1.31,1.2-1.31,1.62c0,0.67,0.11,1.36,0.33,2.13
	c0.22,0.75,0.47,1.2,0.76,1.31c0.29,0.1,0.57,0.16,0.86,0.16c1.02-0.43,2.17-0.78,3.47-0.99c0.25,1.63,0.62,3.22,1.11,4.76
	C133.46,266.52,133.35,266.52,133.25,266.53z M224.34,264.95h-26.27c-14.99,0-28,0.48-39.07,1.41c-2.76,0.45-5.64,0.79-8.63,1.01
	c-2.07,0-3.46-0.67-4.15-2.05v-0.7c-1.16,0-1.84,0.11-2.07,0.33c-1.86,0.26-3.63,0.54-5.36,0.88c-1.25,0.24-2.57,0.44-3.95,0.57
	v-0.71c0.14-1.54,0.21-3.17,0.21-4.92h0.44c1.01-0.43,2.13-0.7,3.35-0.8c1.23-0.11,2.39-0.35,3.48-0.67
	c1.08-0.32,2.19-0.58,3.36-0.82c0.14-0.22,0.57-0.32,1.29-0.32v0.66c0.44,1.31,1.31,1.95,2.61,1.95c1.87-0.22,3.68-0.54,5.41-0.96
	c6.94-0.88,15.1-1.33,24.5-1.33h16.48c1.72,0,3.31-1.2,4.76-3.6c-3.04-0.85-6.07-1.41-9.1-1.62c-2.33-0.22-4.55-0.56-6.72-0.99
	c1-1.3,2.17-2.08,3.47-2.29c0.14,0,0.32-0.05,0.53-0.16c0.21-0.1,0.39-0.56,0.55-1.3c0.14-0.78,0.65-1.25,1.51-1.49
	c0.87-0.22,1.96-0.75,3.27-1.63c0.28-0.42,0.42-0.88,0.42-1.3c0-0.67-0.1-0.99-0.32-0.99c-0.23,0-0.37-0.05-0.44-0.16
	c-0.09-0.1-0.19-0.21-0.33-0.34c-0.14-0.11-0.28-0.16-0.43-0.16c-0.72,0-1.44-0.11-2.17-0.32c-0.72-0.22-1.51-0.32-2.38-0.32
	c-0.42,0-0.81-0.22-1.09-0.67c0.28-0.64,0.74-0.98,1.3-0.98c1.17-0.43,2.17-0.99,3.04-1.63c0.58,0,0.88-0.32,0.88-0.98
	c0-1.09-0.33-1.68-0.99-1.81c-0.65-0.11-1.37-0.16-2.17-0.16c-0.79,0-1.21-0.06-1.28-0.16c-0.09-0.11-0.27-0.38-0.57-0.83l0.46-1.62
	c0.56-0.67,1.18-0.99,1.83-0.99c0.64,0,0.97-0.32,0.97-0.98c0-0.64-0.14-1.04-0.44-1.15c-0.28-0.1-0.56-0.16-0.84-0.16
	c0.14-0.21,0.21-0.37,0.21-0.48c0-0.1,0.07-0.18,0.21-0.18s0.32-0.03,0.53-0.16c0.23-0.11,0.41-0.22,0.56-0.32
	c0.14-0.11,0.39-0.22,0.74-0.32c0.36-0.11,0.55-0.61,0.55-1.49c-0.14-0.86-0.65-1.31-1.52-1.31h-5.62c1.87-0.42,3.77-0.85,5.73-1.3
	c1-0.22,1.88-0.53,2.63-0.93c-2.49,0.33-4.95,0.78-7.4,1.34c-0.46,0.22-1.27,0.34-2.42,0.34c-2.3-0.45-4.72-0.71-7.25-0.71
	l-7.26,0.37l-5.19,0.67c-0.04-1.74-0.1-3.47-0.18-5.19l-2.51,0.19l-3.25,0.64c-0.15-9.16-0.59-18.1-1.3-26.81l-0.22-3.6
	c0.29-4.6,0.43-8.84,0.43-12.78l-0.21-14.72c6.5-1.09,14.01-1.62,22.54-1.62h6.93c1.75-0.43,3.04-1.66,3.9-3.6
	c-2.75-1.09-5.5-1.65-8.24-1.65c-1.58,0-3.24-0.21-4.99-0.64c1.03-1.54,1.96-2.4,2.82-2.64c0.15,0,0.22-0.1,0.22-0.31
	c0.58,0,0.95-0.38,1.09-1.15c0.14-0.77,0.28-1.2,0.42-1.3c0.14-0.11,0.3-0.16,0.44-0.16c0.87-0.22,1.68-0.67,2.39-1.31
	c0.44,0,0.74-0.21,0.88-0.66c0.14-0.43,0.21-0.78,0.21-0.99c0-0.43-0.11-0.75-0.32-0.98c-0.23-0.22-0.42-0.43-0.56-0.64
	c-0.85,0-1.63-0.11-2.26-0.35c-0.65-0.21-1.34-0.32-2.06-0.32l-0.23,0.32c-0.29,0-0.57-0.32-0.85-0.96
	c0.28-0.45,0.49-0.72,0.63-0.82c0.15-0.11,0.29-0.16,0.45-0.16c1-0.46,1.95-0.99,2.8-1.65c0.14,0,0.34-0.06,0.56-0.16
	c0.22-0.11,0.32-0.38,0.32-0.83c0-1.06-0.21-1.68-0.65-1.78c-0.44-0.11-1.23-0.16-2.38-0.16c-0.74,0-1.24-0.22-1.52-0.67
	c0-0.64,0.18-1.3,0.53-1.97c0.37-0.64,0.92-0.96,1.62-0.96h0.44l0.23-0.98c0-0.67-0.3-0.99-0.88-0.99c0-0.66,0.07-0.98,0.21-0.98
	s0.34-0.06,0.57-0.16c0.21-0.11,0.39-0.27,0.53-0.51c0.72,0,1.09-0.53,1.09-1.62c0-0.67-0.19-1.04-0.55-1.15
	c-0.37-0.11-2.27-0.16-5.75-0.16c1.01,0,2.1-0.21,3.27-0.66l1.51-0.32c2.16-0.67,3.67-1.52,4.55-2.61c0.29,0,0.43-0.35,0.43-0.99
	c0-0.66-0.21-0.98-0.65-0.98c-0.3-0.43-0.8-0.67-1.52-0.67h-1.08c-1.23-0.32-2.47-0.56-3.72-0.73c-1.57,0.36-3.15,0.78-4.73,1.27
	c-0.46,0.23-1.26,0.34-2.41,0.34c-1.3-0.36-2.67-0.59-4.12-0.67c-1.21,0.38-2.43,0.86-3.66,1.44c-0.29,0.21-0.8,0.32-1.52,0.32
	c-1.01-0.42-2.1-0.66-3.25-0.66c-2.31,0-4.12,0.34-5.42,0.98l-0.43-10.46c-0.58-7.41-0.86-12.44-0.86-15.05
	c-0.3-4.58-0.74-8.94-1.31-13.07V85.4c-0.29-1.09-0.51-1.99-0.65-2.78c-0.14-0.76-0.8-1.14-1.95-1.14h-0.65
	c1.67-0.3,3.43-0.56,5.29-0.78c0.16,0.44,0.34,0.92,0.55,1.44v0.37c0.92,4.36,1.61,8.97,2.09,13.81c0,2.75,0.45,8.07,1.37,15.89
	l0.69,11.05c2.07-0.68,4.95-1.04,8.64-1.04c0.36,0,0.72,0.01,1.07,0.03c2.5-0.8,4.96-1.19,7.4-1.19c1.3,0,2.59,0.09,3.86,0.25
	c4.36-1.01,8.66-1.51,12.91-1.51c4.13,0,8.16,0.37,12.09,1.04h1.72c1.15,0,1.94,0.25,2.42,0.7c0.7,0,1.04,0.34,1.04,1.04
	c0,0.68-0.23,1.05-0.68,1.05c-1.4,1.15-3.82,2.05-7.25,2.75l-2.42,0.34c-1.86,0.48-3.6,0.7-5.21,0.7c5.55,0,8.58,0.06,9.17,0.17
	c0.57,0.11,0.88,0.51,0.88,1.21c0,1.15-0.6,1.72-1.75,1.72c-0.22,0.25-0.5,0.42-0.84,0.53c-0.37,0.11-0.68,0.17-0.9,0.17
	c-0.23,0-0.34,0.34-0.34,1.04c0.93,0,1.41,0.34,1.41,1.04l-0.37,1.04h-0.7c-1.13,0-2,0.34-2.59,1.01c-0.56,0.71-0.84,1.41-0.84,2.08
	c0.45,0.48,1.23,0.71,2.42,0.71c1.82,0,3.09,0.05,3.79,0.17c0.71,0.11,1.04,0.76,1.04,1.88c0,0.48-0.17,0.76-0.5,0.87
	c-0.37,0.12-0.68,0.17-0.9,0.17c-1.35,0.7-2.87,1.27-4.48,1.75c-0.25,0-0.47,0.05-0.7,0.16c-0.22,0.12-0.56,0.4-1.01,0.88
	c0.45,0.67,0.9,1.01,1.35,1.01l0.36-0.34c1.16,0,2.25,0.11,3.3,0.34c1.01,0.25,2.25,0.36,3.6,0.36c0.22,0.23,0.53,0.45,0.9,0.68
	c0.33,0.25,0.5,0.59,0.5,1.04c0,0.22-0.11,0.59-0.34,1.04c-0.22,0.48-0.7,0.7-1.4,0.7c-1.13,0.68-2.42,1.16-3.8,1.38
	c-0.22,0-0.48,0.06-0.7,0.17c-0.23,0.11-0.45,0.56-0.68,1.38c-0.22,0.81-0.81,1.21-1.74,1.21c0,0.22-0.11,0.34-0.34,0.34
	c-1.38,0.25-2.87,1.15-4.5,2.78c2.79,0.45,5.43,0.67,7.96,0.67c4.36,0,8.75,0.6,13.14,1.75c-1.38,2.05-3.44,3.35-6.22,3.8h-11.05
	c-13.6,0-25.58,0.56-35.95,1.71l0.34,15.55c0,4.17-0.22,8.64-0.69,13.5l0.35,3.8c0.94,7.55,1.57,15.26,1.89,23.13l2.04-0.15
	c1.59,0,3.11,0.24,4.55,0.66c0.72,0,1.23-0.1,1.52-0.32c3.76-1.3,7.58-1.97,11.48-1.97c3.04,0,6.3,0.32,9.76,0.99
	c0.72,0,1.34,0.1,1.83,0.32c0.51,0.21,0.78,0.66,0.78,1.3c0,0.67-0.14,0.99-0.44,0.99c-0.49,0.53-1.1,0.99-1.82,1.36
	c3.59-0.5,7.23-0.74,10.91-0.74c4.84,0,10.04,0.33,15.55,1.04c1.16,0,2.14,0.11,2.93,0.33c0.81,0.23,1.24,0.71,1.24,1.38
	c0,0.71-0.23,1.04-0.71,1.04c-1.6,1.16-3.96,1.97-7.09,2.42c-3.12,0.48-6.15,0.93-9.14,1.38h8.98c1.37,0,2.19,0.48,2.41,1.38
	c0,0.93-0.3,1.46-0.87,1.57c-0.56,0.12-0.95,0.23-1.18,0.34c-0.25,0.11-0.53,0.23-0.9,0.34c-0.34,0.14-0.62,0.17-0.84,0.17
	c-0.23,0-0.34,0.08-0.34,0.19c0,0.12-0.11,0.29-0.34,0.51c0.45,0,0.9,0.06,1.35,0.17c0.48,0.11,0.71,0.53,0.71,1.21
	c0,0.7-0.54,1.04-1.55,1.04c-1.04,0-2.03,0.34-2.93,1.04l-0.73,1.72c0.48,0.47,0.76,0.75,0.9,0.87c0.12,0.11,0.79,0.17,2.06,0.17
	c1.26,0,2.41,0.05,3.46,0.16c1.04,0.15,1.57,0.76,1.57,1.92c0,0.7-0.48,1.04-1.41,1.04c-1.37,0.67-2.98,1.26-4.83,1.71
	c-0.9,0-1.63,0.37-2.08,1.04c0.45,0.48,1.06,0.71,1.74,0.71c1.38,0,2.64,0.11,3.8,0.33c1.15,0.23,2.3,0.34,3.46,0.34
	c0.22,0,0.45,0.06,0.67,0.17c0.23,0.14,0.39,0.25,0.53,0.37c0.12,0.11,0.34,0.17,0.71,0.17c0.34,0,0.5,0.33,0.5,1.04
	c0,0.45-0.22,0.92-0.67,1.37c-2.08,0.93-3.83,1.49-5.2,1.72c-1.38,0.25-2.2,0.76-2.42,1.57c-0.26,0.79-0.54,1.27-0.87,1.38
	c-0.34,0.12-0.62,0.17-0.85,0.17c-2.08,0.23-3.94,1.04-5.54,2.42c3.46,0.45,7,0.82,10.72,1.04c4.83,0.23,9.67,0.82,14.51,1.72
	C229.62,263.69,227.09,264.95,224.34,264.95z"/>
<g>
	<g>
		<path d="M191.63,253.26c-2.33-0.22-4.55-0.56-6.72-0.99c1-1.3,2.17-2.08,3.47-2.29c0.14,0,0.32-0.05,0.53-0.16
			c0.21-0.1,0.39-0.56,0.55-1.3c0.14-0.78,0.65-1.25,1.51-1.49c0.87-0.22,1.96-0.75,3.27-1.63c0.28-0.42,0.42-0.88,0.42-1.3
			c0-0.67-0.1-0.99-0.32-0.99c-0.23,0-0.37-0.05-0.44-0.16c-0.09-0.1-0.19-0.21-0.33-0.34c-0.14-0.11-0.28-0.16-0.43-0.16
			c-0.72,0-1.44-0.11-2.17-0.32c-0.72-0.22-1.51-0.32-2.38-0.32c-0.42,0-0.81-0.22-1.09-0.67c0.28-0.64,0.74-0.98,1.3-0.98
			c1.17-0.43,2.17-0.99,3.04-1.63c0.58,0,0.88-0.32,0.88-0.98c0-1.09-0.33-1.68-0.99-1.81c-0.65-0.11-1.37-0.16-2.17-0.16
			c-0.79,0-1.21-0.06-1.28-0.16c-0.09-0.11-0.27-0.38-0.57-0.83l0.46-1.62c0.56-0.67,1.18-0.99,1.83-0.99
			c0.64,0,0.97-0.32,0.97-0.98c0-0.64-0.14-1.04-0.44-1.15c-0.28-0.1-0.56-0.16-0.84-0.16c0.14-0.21,0.21-0.37,0.21-0.48
			c0-0.1,0.07-0.18,0.21-0.18s0.32-0.03,0.53-0.16c0.23-0.11,0.41-0.22,0.56-0.32c0.14-0.11,0.39-0.22,0.74-0.32
			c0.36-0.11,0.55-0.61,0.55-1.49c-0.14-0.86-0.65-1.31-1.52-1.31h-5.62c1.87-0.42,3.77-0.85,5.73-1.3c1-0.22,1.88-0.53,2.63-0.93
			c-2.49,0.33-4.95,0.78-7.4,1.34c-0.46,0.22-1.27,0.34-2.42,0.34c-2.3-0.45-4.72-0.71-7.25-0.71l-7.26,0.37l-5.19,0.67
			c-0.04-1.74-0.1-3.47-0.18-5.19l-2.51,0.19l-3.25,0.64c-0.15-9.16-0.59-18.1-1.3-26.81l-0.22-3.6c0.29-4.6,0.43-8.84,0.43-12.78
			l-0.21-14.72c6.5-1.09,14.01-1.62,22.54-1.62h6.93c1.75-0.43,3.04-1.66,3.9-3.6c-2.75-1.09-5.5-1.65-8.24-1.65
			c-1.58,0-3.24-0.21-4.99-0.64c1.03-1.54,1.96-2.4,2.82-2.64c0.15,0,0.22-0.1,0.22-0.31c0.58,0,0.95-0.38,1.09-1.15
			c0.14-0.77,0.28-1.2,0.42-1.3c0.14-0.11,0.3-0.16,0.44-0.16c0.87-0.22,1.68-0.67,2.39-1.31c0.44,0,0.74-0.21,0.88-0.66
			c0.14-0.43,0.21-0.78,0.21-0.99c0-0.43-0.11-0.75-0.32-0.98c-0.23-0.22-0.42-0.43-0.56-0.64c-0.85,0-1.63-0.11-2.26-0.35
			c-0.65-0.21-1.34-0.32-2.06-0.32l-0.23,0.32c-0.29,0-0.57-0.32-0.85-0.96c0.28-0.45,0.49-0.72,0.63-0.82
			c0.15-0.11,0.29-0.16,0.45-0.16c1-0.46,1.95-0.99,2.8-1.65c0.14,0,0.34-0.06,0.56-0.16c0.22-0.11,0.32-0.38,0.32-0.83
			c0-1.06-0.21-1.68-0.65-1.78c-0.44-0.11-1.23-0.16-2.38-0.16c-0.74,0-1.24-0.22-1.52-0.67c0-0.64,0.18-1.3,0.53-1.97
			c0.37-0.64,0.92-0.96,1.62-0.96h0.44l0.23-0.98c0-0.67-0.3-0.99-0.88-0.99c0-0.66,0.07-0.98,0.21-0.98s0.34-0.06,0.57-0.16
			c0.21-0.11,0.39-0.27,0.53-0.51c0.72,0,1.09-0.53,1.09-1.62c0-0.67-0.19-1.04-0.55-1.15c-0.37-0.11-2.27-0.16-5.75-0.16
			c1.01,0,2.1-0.21,3.27-0.66l1.51-0.32c2.16-0.67,3.67-1.52,4.55-2.61c0.29,0,0.43-0.35,0.43-0.99c0-0.66-0.21-0.98-0.65-0.98
			c-0.3-0.43-0.8-0.67-1.52-0.67h-1.08c-1.23-0.32-2.47-0.56-3.72-0.73c-1.57,0.36-3.15,0.78-4.73,1.27
			c-0.46,0.23-1.26,0.34-2.41,0.34c-1.3-0.36-2.67-0.59-4.12-0.67c-1.21,0.38-2.43,0.86-3.66,1.44c-0.29,0.21-0.8,0.32-1.52,0.32
			c-1.01-0.42-2.1-0.66-3.25-0.66c-2.31,0-4.12,0.34-5.42,0.98l-0.43-10.46c-0.58-7.41-0.86-12.44-0.86-15.05
			c-0.3-4.58-0.74-8.94-1.31-13.07V85.4c-0.29-1.09-0.51-1.99-0.65-2.78c-0.14-0.76-0.8-1.14-1.95-1.14h-0.65
			c1.67-0.3,3.43-0.56,5.29-0.78c-0.2-0.55-0.36-1.04-0.49-1.5c-0.22-0.8-1.26-1.21-3.1-1.21h-1.05c9.69-1.15,21.44-1.73,35.26-1.73
			c2.08,0.24,4.25,0.35,6.55,0.35c0.85,0,1.7,0,2.55,0.01c-2.36-0.76-4.73-1.21-7.08-1.36c-2.01-0.21-3.99-0.53-5.86-0.97
			c1.17-1.53,2.4-2.31,3.69-2.31h0.23c0.42-0.42,0.74-0.97,0.97-1.62c0.21-0.67,0.54-1.09,0.97-1.32c1.44,0,2.68-0.32,3.68-0.97
			c0.15-0.23,0.37-0.39,0.66-0.49c0.28-0.11,0.42-0.5,0.42-1.15c0-0.65-0.14-1.04-0.42-1.14c-0.29-0.11-0.51-0.28-0.66-0.5
			c-0.72,0-1.48-0.16-2.27-0.49c-0.79-0.33-1.84-0.49-3.14-0.49c-0.44,0-0.81-0.21-1.09-0.65c0.44-0.66,0.88-0.99,1.3-0.99
			c1.73-0.21,3.18-0.86,4.34-1.96c0.14,0,0.21-0.21,0.21-0.65c0-0.66-0.35-1.2-1.09-1.64h-0.64c-0.42-0.21-1.09-0.33-1.95-0.33
			l-1.29-0.65c-0.14,0-0.23-0.21-0.23-0.65c0-1.53,1.07-2.29,3.26-2.29c0.14,0,0.21-0.34,0.21-0.99c0-0.65-0.35-0.98-1.09-0.98
			c0-0.66,0.18-0.98,0.55-0.98s0.68-0.17,0.97-0.49c0.28-0.33,0.58-0.54,0.88-0.65c0.28-0.11,0.42-0.49,0.42-1.15
			c0-0.66-0.35-0.98-1.09-0.98l-6.28-0.33l2.82-0.66c3.46,0,6.21-0.75,8.24-2.29c0.3-0.43,0.44-0.86,0.44-1.3s-0.34-0.87-0.99-1.3
			c-0.63-0.44-1.48-0.67-2.49-0.67c-3.61-0.87-7.14-1.31-10.61-1.31c-3.9,0-7.74,0.66-11.5,1.98h-1.72
			c-1.45-0.44-3.04-0.67-4.78-0.67l-4.77,0.33c-8.38,1.09-16.68,2.94-24.92,5.57c-2.46,0.44-4.77,1.3-6.93,2.61
			c-0.58,0.44-0.98,0.82-1.2,1.14c-0.21,0.33-0.32,1.15-0.32,2.46s-0.36,2.29-1.08,2.95c-2.61,0.21-5.07,1.3-7.38,3.27
			c-0.72,0-1.08,0.44-1.08,1.31c0.15,0.88,0.36,1.35,0.65,1.47c0.29,0.11,1.45,0.16,3.47,0.16l0.65,0.32
			c-0.43,0.67-0.98,1.22-1.62,1.64c-0.66,0.44-1.23,0.77-1.74,0.99c-0.5,0.21-0.76,0.88-0.76,1.95c0,0.44,0.07,0.78,0.22,0.99
			c0.14,0.22,0.25,0.38,0.32,0.49c0.08,0.11,0.25,0.28,0.55,0.49c0.29,0.22,0.72,0.32,1.29,0.32c0.87-0.21,1.74-0.37,2.6-0.48
			c0.88-0.1,1.81-0.33,2.83-0.66c1-0.32,2.45-0.48,4.33-0.48v0.97c0,0.88-0.15,1.53-0.44,1.97l-0.65,0.32
			c-4.19,2.41-8.52,5.13-13,8.19c-0.43,0-0.65,0.44-0.65,1.3l0.36,0.06c1.86-0.48,3.81-1.1,5.83-1.85l0.12,1.12
			c0.79-0.21,1.57-0.31,2.36-0.31c-0.72,0.44-1.33,0.93-1.85,1.48c-0.13,0.14-0.23,0.27-0.33,0.42l0.38,3.41
			c0.25,0.17,0.56,0.25,0.93,0.25c2.75,0,5.85-0.98,9.33-2.94l0.43,5.9c0.43,4.37,1,14.16,1.73,29.45l0.22,0.64
			c0,1.3-0.15,2.18-0.43,2.61c-0.88,1.54-1.31,3.51-1.31,5.91v4.9h-0.21c-0.15,0.21-0.33,0.37-0.55,0.48
			c-0.21,0.13-0.4,0.29-0.54,0.5c-0.15,0.21-0.29,0.37-0.43,0.48c-0.15,0.11-0.22,0.4-0.22,0.83l0.22,1.97
			c0,1.51-0.29,2.29-0.87,2.29c-2.31,0.42-4.48,1.51-6.5,3.27c-0.14,0.21-0.36,0.37-0.65,0.48s-0.44,0.37-0.44,0.83l0.22,0.64
			c0.15,0.45,0.29,0.71,0.44,0.82c0.14,0.11,1.29,0.16,3.46,0.16l0.43,0.32c-0.14,0.67-0.32,1.04-0.53,1.14
			c-0.22,0.14-0.4,0.19-0.55,0.19c-0.72,0.85-1.23,1.41-1.52,1.63c-0.28,0.21-0.43,0.66-0.43,1.3c0.15,0.88,0.43,1.54,0.87,1.97
			s0.87,0.67,1.3,0.67c0.72-0.24,1.45-0.4,2.17-0.51c0.72-0.11,1.48-0.27,2.27-0.48c0.8-0.21,1.63-0.35,2.49-0.35l0.22,3.28
			l-2.38,1.65c-3.03,1.94-4.84,3.81-5.42,5.57c0.43,1.09,0.79,1.62,1.08,1.62s0.65-0.11,1.09-0.32c0.43-0.21,1.22-0.35,2.38-0.35
			l-0.21,0.35c-0.59,0.43-0.95,0.77-1.09,0.99l-0.22,0.63l0.65,2.96c0.58,0.43,1.02,0.64,1.31,0.64c0.86-0.43,1.87-0.75,3.03-0.99
			c0.14,14.62,0.21,35.02,0.21,61.19c-0.43,0.24-0.72,0.51-0.86,0.83c-0.15,0.32-0.22,1.09-0.22,2.29c0,1.2-0.07,1.97-0.21,2.29
			c-0.15,0.32-0.43,0.5-0.87,0.5c-2.6,0.22-5.13,1.31-7.59,3.25h-0.21c-0.58,0.45-0.87,0.88-0.87,1.33l0.22,0.64
			c0.29,0.67,1.12,0.99,2.49,0.99s2.2,0.1,2.49,0.32c-0.29,0.45-0.9,0.98-1.84,1.65c-0.94,0.64-1.49,1.09-1.63,1.3
			c-0.14,0.21-0.22,0.77-0.22,1.63c0.29,0.87,0.51,1.38,0.66,1.49c0.14,0.1,0.29,0.26,0.43,0.48h0.43c0,0.21,0.08,0.32,0.22,0.32
			l0.43-0.32l3.26-0.32c0.57,0,1.12-0.11,1.62-0.35c0.5-0.21,1.33-0.32,2.5-0.32v3.94c-2.17,1.09-4.12,2.4-5.86,3.92
			c-0.43,0.45-0.83,0.82-1.19,1.14s-0.54,0.72-0.54,1.15l0.21,0.32h-0.21c0.14,0.24,0.25,0.5,0.32,0.82
			c0.08,0.32,0.25,0.51,0.54,0.51v0.32h0.66c0.57-0.43,1.51-0.67,2.81-0.67l-0.21,0.35c-0.87,0.64-1.31,1.2-1.31,1.62
			c0,0.67,0.11,1.36,0.33,2.13c0.22,0.75,0.47,1.2,0.76,1.31c0.29,0.1,0.57,0.16,0.86,0.16c1.02-0.43,2.17-0.78,3.47-0.99
			c0.25,1.63,0.62,3.22,1.11,4.76c0.43-0.03,0.86-0.06,1.28-0.11v-0.71c0.14-1.54,0.21-3.17,0.21-4.92h0.44
			c1.01-0.43,2.13-0.7,3.35-0.8c1.23-0.11,2.39-0.35,3.48-0.67c1.08-0.32,2.19-0.58,3.36-0.82c0.14-0.22,0.57-0.32,1.29-0.32v0.66
			c0.44,1.31,1.31,1.95,2.61,1.95c1.87-0.22,3.68-0.54,5.41-0.96c6.94-0.88,15.1-1.33,24.5-1.33h16.48c1.72,0,3.31-1.2,4.76-3.6
			C197.69,254.03,194.66,253.47,191.63,253.26z M140.37,86.71c-0.08,0.42-0.26,0.77-0.55,0.98c-0.43,0-0.72-0.16-0.86-0.5
			c-0.15-0.32-0.26-0.64-0.33-0.96c-0.08-0.32-0.15-0.59-0.22-0.83c-0.07-0.21-0.1-0.56-0.1-0.98l-0.66-3.93
			c0.88-0.43,1.81-0.65,2.82-0.65C140.47,83.99,140.44,86.28,140.37,86.71z"/>
	</g>
	<g>
		<path class="st0" d="M191.63,253.26c-2.33-0.22-4.55-0.56-6.72-0.99c1-1.3,2.17-2.08,3.47-2.29c0.14,0,0.32-0.05,0.53-0.16
			c0.21-0.1,0.39-0.56,0.55-1.3c0.14-0.78,0.65-1.25,1.51-1.49c0.87-0.22,1.96-0.75,3.27-1.63c0.28-0.42,0.42-0.88,0.42-1.3
			c0-0.67-0.1-0.99-0.32-0.99c-0.23,0-0.37-0.05-0.44-0.16c-0.09-0.1-0.19-0.21-0.33-0.34c-0.14-0.11-0.28-0.16-0.43-0.16
			c-0.72,0-1.44-0.11-2.17-0.32c-0.72-0.22-1.51-0.32-2.38-0.32c-0.42,0-0.81-0.22-1.09-0.67c0.28-0.64,0.74-0.98,1.3-0.98
			c1.17-0.43,2.17-0.99,3.04-1.63c0.58,0,0.88-0.32,0.88-0.98c0-1.09-0.33-1.68-0.99-1.81c-0.65-0.11-1.37-0.16-2.17-0.16
			c-0.79,0-1.21-0.06-1.28-0.16c-0.09-0.11-0.27-0.38-0.57-0.83l0.46-1.62c0.56-0.67,1.18-0.99,1.83-0.99
			c0.64,0,0.97-0.32,0.97-0.98c0-0.64-0.14-1.04-0.44-1.15c-0.28-0.1-0.56-0.16-0.84-0.16c0.14-0.21,0.21-0.37,0.21-0.48
			c0-0.1,0.07-0.18,0.21-0.18s0.32-0.03,0.53-0.16c0.23-0.11,0.41-0.22,0.56-0.32c0.14-0.11,0.39-0.22,0.74-0.32
			c0.36-0.11,0.55-0.61,0.55-1.49c-0.14-0.86-0.65-1.31-1.52-1.31h-5.62c1.87-0.42,3.77-0.85,5.73-1.3c1-0.22,1.88-0.53,2.63-0.93
			c-2.49,0.33-4.95,0.78-7.4,1.34c-0.46,0.22-1.27,0.34-2.42,0.34c-2.3-0.45-4.72-0.71-7.25-0.71l-7.26,0.37l-5.19,0.67
			c-0.04-1.74-0.1-3.47-0.18-5.19l-2.51,0.19l-3.25,0.64c-0.15-9.16-0.59-18.1-1.3-26.81l-0.22-3.6c0.29-4.6,0.43-8.84,0.43-12.78
			l-0.21-14.72c6.5-1.09,14.01-1.62,22.54-1.62h6.93c1.75-0.43,3.04-1.66,3.9-3.6c-2.75-1.09-5.5-1.65-8.24-1.65
			c-1.58,0-3.24-0.21-4.99-0.64c1.03-1.54,1.96-2.4,2.82-2.64c0.15,0,0.22-0.1,0.22-0.31c0.58,0,0.95-0.38,1.09-1.15
			c0.14-0.77,0.28-1.2,0.42-1.3c0.14-0.11,0.3-0.16,0.44-0.16c0.87-0.22,1.68-0.67,2.39-1.31c0.44,0,0.74-0.21,0.88-0.66
			c0.14-0.43,0.21-0.78,0.21-0.99c0-0.43-0.11-0.75-0.32-0.98c-0.23-0.22-0.42-0.43-0.56-0.64c-0.85,0-1.63-0.11-2.26-0.35
			c-0.65-0.21-1.34-0.32-2.06-0.32l-0.23,0.32c-0.29,0-0.57-0.32-0.85-0.96c0.28-0.45,0.49-0.72,0.63-0.82
			c0.15-0.11,0.29-0.16,0.45-0.16c1-0.46,1.95-0.99,2.8-1.65c0.14,0,0.34-0.06,0.56-0.16c0.22-0.11,0.32-0.38,0.32-0.83
			c0-1.06-0.21-1.68-0.65-1.78c-0.44-0.11-1.23-0.16-2.38-0.16c-0.74,0-1.24-0.22-1.52-0.67c0-0.64,0.18-1.3,0.53-1.97
			c0.37-0.64,0.92-0.96,1.62-0.96h0.44l0.23-0.98c0-0.67-0.3-0.99-0.88-0.99c0-0.66,0.07-0.98,0.21-0.98s0.34-0.06,0.57-0.16
			c0.21-0.11,0.39-0.27,0.53-0.51c0.72,0,1.09-0.53,1.09-1.62c0-0.67-0.19-1.04-0.55-1.15c-0.37-0.11-2.27-0.16-5.75-0.16
			c1.01,0,2.1-0.21,3.27-0.66l1.51-0.32c2.16-0.67,3.67-1.52,4.55-2.61c0.29,0,0.43-0.35,0.43-0.99c0-0.66-0.21-0.98-0.65-0.98
			c-0.3-0.43-0.8-0.67-1.52-0.67h-1.08c-1.23-0.32-2.47-0.56-3.72-0.73c-1.57,0.36-3.15,0.78-4.73,1.27
			c-0.46,0.23-1.26,0.34-2.41,0.34c-1.3-0.36-2.67-0.59-4.12-0.67c-1.21,0.38-2.43,0.86-3.66,1.44c-0.29,0.21-0.8,0.32-1.52,0.32
			c-1.01-0.42-2.1-0.66-3.25-0.66c-2.31,0-4.12,0.34-5.42,0.98l-0.43-10.46c-0.58-7.41-0.86-12.44-0.86-15.05
			c-0.3-4.58-0.74-8.94-1.31-13.07V85.4c-0.29-1.09-0.51-1.99-0.65-2.78c-0.14-0.76-0.8-1.14-1.95-1.14h-0.65
			c1.67-0.3,3.43-0.56,5.29-0.78c4.92-0.58,10.53-0.86,16.82-0.86c1.3,0.22,2.66,0.33,4.11,0.33c2.89,0,5.78,0.11,8.67,0.32
			c2.9,0.23,5.72,0.33,8.47,0.33c1.73,0,3.39-0.98,4.97-2.94c-1.1-0.49-2.21-0.91-3.32-1.26c-2.36-0.76-4.73-1.21-7.08-1.36
			c-2.01-0.21-3.99-0.53-5.86-0.97c1.17-1.53,2.4-2.31,3.69-2.31h0.23c0.42-0.42,0.74-0.97,0.97-1.62c0.21-0.67,0.54-1.09,0.97-1.32
			c1.44,0,2.68-0.32,3.68-0.97c0.15-0.23,0.37-0.39,0.66-0.49c0.28-0.11,0.42-0.5,0.42-1.15c0-0.65-0.14-1.04-0.42-1.14
			c-0.29-0.11-0.51-0.28-0.66-0.5c-0.72,0-1.48-0.16-2.27-0.49c-0.79-0.33-1.84-0.49-3.14-0.49c-0.44,0-0.81-0.21-1.09-0.65
			c0.44-0.66,0.88-0.99,1.3-0.99c1.73-0.21,3.18-0.86,4.34-1.96c0.14,0,0.21-0.21,0.21-0.65c0-0.66-0.35-1.2-1.09-1.64h-0.64
			c-0.42-0.21-1.09-0.33-1.95-0.33l-1.29-0.65c-0.14,0-0.23-0.21-0.23-0.65c0-1.53,1.07-2.29,3.26-2.29c0.14,0,0.21-0.34,0.21-0.99
			c0-0.65-0.35-0.98-1.09-0.98c0-0.66,0.18-0.98,0.55-0.98s0.68-0.17,0.97-0.49c0.28-0.33,0.58-0.54,0.88-0.65
			c0.28-0.11,0.42-0.49,0.42-1.15c0-0.66-0.35-0.98-1.09-0.98l-6.28-0.33l2.82-0.66c3.46,0,6.21-0.75,8.24-2.29
			c0.3-0.43,0.44-0.86,0.44-1.3s-0.34-0.87-0.99-1.3c-0.63-0.44-1.48-0.67-2.49-0.67c-3.61-0.87-7.14-1.31-10.61-1.31
			c-3.9,0-7.74,0.66-11.5,1.98h-1.72c-1.45-0.44-3.04-0.67-4.78-0.67l-4.77,0.33c-8.38,1.09-16.68,2.94-24.92,5.57
			c-2.46,0.44-4.77,1.3-6.93,2.61c-0.58,0.44-0.98,0.82-1.2,1.14c-0.21,0.33-0.32,1.15-0.32,2.46s-0.36,2.29-1.08,2.95
			c-2.61,0.21-5.07,1.3-7.38,3.27c-0.72,0-1.08,0.44-1.08,1.31c0.15,0.88,0.36,1.35,0.65,1.47c0.29,0.11,1.45,0.16,3.47,0.16
			l0.65,0.32c-0.43,0.67-0.98,1.22-1.62,1.64c-0.66,0.44-1.23,0.77-1.74,0.99c-0.5,0.21-0.76,0.88-0.76,1.95
			c0,0.44,0.07,0.78,0.22,0.99c0.14,0.22,0.25,0.38,0.32,0.49c0.08,0.11,0.25,0.28,0.55,0.49c0.29,0.22,0.72,0.32,1.29,0.32
			c0.87-0.21,1.74-0.37,2.6-0.48c0.88-0.1,1.81-0.33,2.83-0.66c1-0.32,2.45-0.48,4.33-0.48v0.97c0,0.88-0.15,1.53-0.44,1.97
			l-0.65,0.32c-4.19,2.41-8.52,5.13-13,8.19c-0.43,0-0.65,0.44-0.65,1.3l0.36,0.06l1.59,0.28c1.01,0,2.1-0.23,3.25-0.67
			c0.37-0.14,0.74-0.25,1.11-0.34c0.79-0.21,1.57-0.31,2.36-0.31c-0.72,0.44-1.33,0.93-1.85,1.48c-0.13,0.14-0.23,0.27-0.33,0.42
			c-0.28,0.42-0.42,0.88-0.42,1.37c0,1.03,0.27,1.72,0.8,2.04c0.25,0.17,0.56,0.25,0.93,0.25c2.75,0,5.85-0.98,9.33-2.94l0.43,5.9
			c0.43,4.37,1,14.16,1.73,29.45l0.22,0.64c0,1.3-0.15,2.18-0.43,2.61c-0.88,1.54-1.31,3.51-1.31,5.91v4.9h-0.21
			c-0.15,0.21-0.33,0.37-0.55,0.48c-0.21,0.13-0.4,0.29-0.54,0.5c-0.15,0.21-0.29,0.37-0.43,0.48c-0.15,0.11-0.22,0.4-0.22,0.83
			l0.22,1.97c0,1.51-0.29,2.29-0.87,2.29c-2.31,0.42-4.48,1.51-6.5,3.27c-0.14,0.21-0.36,0.37-0.65,0.48s-0.44,0.37-0.44,0.83
			l0.22,0.64c0.15,0.45,0.29,0.71,0.44,0.82c0.14,0.11,1.29,0.16,3.46,0.16l0.43,0.32c-0.14,0.67-0.32,1.04-0.53,1.14
			c-0.22,0.14-0.4,0.19-0.55,0.19c-0.72,0.85-1.23,1.41-1.52,1.63c-0.28,0.21-0.43,0.66-0.43,1.3c0.15,0.88,0.43,1.54,0.87,1.97
			s0.87,0.67,1.3,0.67c0.72-0.24,1.45-0.4,2.17-0.51c0.72-0.11,1.48-0.27,2.27-0.48c0.8-0.21,1.63-0.35,2.49-0.35l0.22,3.28
			l-2.38,1.65c-3.03,1.94-4.84,3.81-5.42,5.57c0.43,1.09,0.79,1.62,1.08,1.62s0.65-0.11,1.09-0.32c0.43-0.21,1.22-0.35,2.38-0.35
			l-0.21,0.35c-0.59,0.43-0.95,0.77-1.09,0.99l-0.22,0.63l0.65,2.96c0.58,0.43,1.02,0.64,1.31,0.64c0.86-0.43,1.87-0.75,3.03-0.99
			c0.14,14.62,0.21,35.02,0.21,61.19c-0.43,0.24-0.72,0.51-0.86,0.83c-0.15,0.32-0.22,1.09-0.22,2.29c0,1.2-0.07,1.97-0.21,2.29
			c-0.15,0.32-0.43,0.5-0.87,0.5c-2.6,0.22-5.13,1.31-7.59,3.25h-0.21c-0.58,0.45-0.87,0.88-0.87,1.33l0.22,0.64
			c0.29,0.67,1.12,0.99,2.49,0.99s2.2,0.1,2.49,0.32c-0.29,0.45-0.9,0.98-1.84,1.65c-0.94,0.64-1.49,1.09-1.63,1.3
			c-0.14,0.21-0.22,0.77-0.22,1.63c0.29,0.87,0.51,1.38,0.66,1.49c0.14,0.1,0.29,0.26,0.43,0.48h0.43c0,0.21,0.08,0.32,0.22,0.32
			l0.43-0.32l3.26-0.32c0.57,0,1.12-0.11,1.62-0.35c0.5-0.21,1.33-0.32,2.5-0.32v3.94c-2.17,1.09-4.12,2.4-5.86,3.92
			c-0.43,0.45-0.83,0.82-1.19,1.14s-0.54,0.72-0.54,1.15l0.21,0.32h-0.21c0.14,0.24,0.25,0.5,0.32,0.82
			c0.08,0.32,0.25,0.51,0.54,0.51v0.32h0.66c0.57-0.43,1.51-0.67,2.81-0.67l-0.21,0.35c-0.87,0.64-1.31,1.2-1.31,1.62
			c0,0.67,0.11,1.36,0.33,2.13c0.22,0.75,0.47,1.2,0.76,1.31c0.29,0.1,0.57,0.16,0.86,0.16c1.02-0.43,2.17-0.78,3.47-0.99
			c0.25,1.63,0.62,3.22,1.11,4.76c0.35,1.16,0.78,2.3,1.28,3.41v-4.23c0.14-1.54,0.21-3.17,0.21-4.92h0.44
			c1.01-0.43,2.13-0.7,3.35-0.8c1.23-0.11,2.39-0.35,3.48-0.67c1.08-0.32,2.19-0.58,3.36-0.82c0.14-0.22,0.57-0.32,1.29-0.32v0.66
			c0.44,1.31,1.31,1.95,2.61,1.95c1.87-0.22,3.68-0.54,5.41-0.96c6.94-0.88,15.1-1.33,24.5-1.33h16.48c1.72,0,3.31-1.2,4.76-3.6
			C197.69,254.03,194.66,253.47,191.63,253.26z M140.37,86.71c-0.08,0.42-0.26,0.77-0.55,0.98c-0.43,0-0.72-0.16-0.86-0.5
			c-0.15-0.32-0.26-0.64-0.33-0.96c-0.08-0.32-0.15-0.59-0.22-0.83c-0.07-0.21-0.1-0.56-0.1-0.98l-0.66-3.93
			c0.88-0.43,1.81-0.65,2.82-0.65C140.47,83.99,140.44,86.28,140.37,86.71z"/>
	</g>
</g>
</svg>
